<svg xmlns="http://www.w3.org/2000/svg" xmlns:xlink="http://www.w3.org/1999/xlink" version="1.2" width="210.00mm" height="297.00mm" viewBox="0 0 119.5016 169.0094">
<style type="text/css">
<![CDATA[
tspan { white-space: pre; }
]]>
</style>
<!-- Page: 1/1 -->
<g transform="translate(36.8918, 6.4989)">
<text font-family="sans-serif" font-weight="bold" font-size="3.4927" text-anchor="start" fill="currentColor">
<tspan>The Messiah - Overture</tspan>
</text>
</g>
<g transform="translate(49.8492, 9.9989)">
<text font-family="sans-serif" font-weight="bold" font-size="2.4696" text-anchor="start" fill="currentColor">
<tspan>for solo guitar</tspan>
</text>
</g>
<g transform="translate(100.3586, 13.4989)">
<text font-family="sans-serif" font-size="2.2001" text-anchor="start" fill="currentColor">
<tspan>G. F. Händel</tspan>
</text>
</g>
<g transform="translate(98.0710, 16.9989)">
<text font-family="sans-serif" font-size="2.2001" text-anchor="start" fill="currentColor">
<tspan>arr. M. Vercesi</tspan>
</text>
</g>
<g transform="translate(5.6906, 26.0322)">
<rect x="103.3225" y="-0.1000" width="1.9563" height="0.2000" ry="0.1000" fill="currentColor"/>
</g>
<g transform="translate(5.6906, 27.0322)">
<rect x="103.3225" y="-0.1000" width="1.9563" height="0.2000" ry="0.1000" fill="currentColor"/>
</g>
<g transform="translate(5.6906, 28.0322)">
<rect x="103.3225" y="-0.1000" width="1.9563" height="0.2000" ry="0.1000" fill="currentColor"/>
</g>
<g transform="translate(5.6906, 26.0322)">
<rect x="94.4844" y="-0.1000" width="1.9563" height="0.2000" ry="0.1000" fill="currentColor"/>
</g>
<g transform="translate(5.6906, 27.0322)">
<rect x="94.4844" y="-0.1000" width="1.9563" height="0.2000" ry="0.1000" fill="currentColor"/>
</g>
<g transform="translate(5.6906, 26.0322)">
<rect x="90.2024" y="-0.1000" width="1.9563" height="0.2000" ry="0.1000" fill="currentColor"/>
</g>
<g transform="translate(5.6906, 27.0322)">
<rect x="90.2024" y="-0.1000" width="1.9563" height="0.2000" ry="0.1000" fill="currentColor"/>
</g>
<g transform="translate(5.6906, 26.0322)">
<rect x="81.3643" y="-0.1000" width="1.9563" height="0.2000" ry="0.1000" fill="currentColor"/>
</g>
<g transform="translate(5.6906, 27.0322)">
<rect x="81.5154" y="-0.1000" width="1.8053" height="0.2000" ry="0.1000" fill="currentColor"/>
</g>
<g transform="translate(5.6906, 26.0322)">
<rect x="73.0141" y="-0.1000" width="1.9563" height="0.2000" ry="0.1000" fill="currentColor"/>
</g>
<g transform="translate(5.6906, 27.0322)">
<rect x="73.0141" y="-0.1000" width="1.9563" height="0.2000" ry="0.1000" fill="currentColor"/>
</g>
<g transform="translate(5.6906, 28.0322)">
<rect x="73.0141" y="-0.1000" width="1.9563" height="0.2000" ry="0.1000" fill="currentColor"/>
</g>
<g transform="translate(5.6906, 26.0322)">
<rect x="64.1760" y="-0.1000" width="1.9563" height="0.2000" ry="0.1000" fill="currentColor"/>
</g>
<g transform="translate(5.6906, 27.0322)">
<rect x="64.1760" y="-0.1000" width="1.9563" height="0.2000" ry="0.1000" fill="currentColor"/>
</g>
<g transform="translate(5.6906, 28.0322)">
<rect x="64.1760" y="-0.1000" width="1.9563" height="0.2000" ry="0.1000" fill="currentColor"/>
</g>
<g transform="translate(5.6906, 26.0322)">
<rect x="58.1922" y="-0.1000" width="1.9563" height="0.2000" ry="0.1000" fill="currentColor"/>
</g>
<g transform="translate(5.6906, 27.0322)">
<rect x="58.1922" y="-0.1000" width="1.9563" height="0.2000" ry="0.1000" fill="currentColor"/>
</g>
<g transform="translate(5.6906, 26.0322)">
<rect x="49.4583" y="-0.1000" width="1.9563" height="0.2000" ry="0.1000" fill="currentColor"/>
</g>
<g transform="translate(5.6906, 26.0322)">
<rect x="40.9715" y="-0.1000" width="1.9563" height="0.2000" ry="0.1000" fill="currentColor"/>
</g>
<g transform="translate(5.6906, 26.0322)">
<rect x="32.1334" y="-0.1000" width="1.9563" height="0.2000" ry="0.1000" fill="currentColor"/>
</g>
<g transform="translate(5.6906, 26.0322)">
<rect x="27.8515" y="-0.1000" width="1.9563" height="0.2000" ry="0.1000" fill="currentColor"/>
</g>
<g transform="translate(5.6906, 27.0322)">
<rect x="27.8515" y="-0.1000" width="1.9563" height="0.2000" ry="0.1000" fill="currentColor"/>
</g>
<g transform="translate(5.6906, 26.0322)">
<rect x="19.0134" y="-0.1000" width="1.9563" height="0.2000" ry="0.1000" fill="currentColor"/>
</g>
<g transform="translate(5.6906, 27.0322)">
<rect x="19.0134" y="-0.1000" width="1.9563" height="0.2000" ry="0.1000" fill="currentColor"/>
</g>
<g transform="translate(5.6906, 28.0322)">
<rect x="19.0134" y="-0.1000" width="1.9563" height="0.2000" ry="0.1000" fill="currentColor"/>
</g>
<g transform="translate(14.2264, 25.0322)">
<line stroke-linejoin="round" stroke-linecap="round" stroke-width="0.1000" stroke="currentColor" x1="0.0500" y1="0" x2="99.5346" y2="0"/>
</g>
<g transform="translate(14.2264, 24.0322)">
<line stroke-linejoin="round" stroke-linecap="round" stroke-width="0.1000" stroke="currentColor" x1="0.0500" y1="0" x2="99.5346" y2="0"/>
</g>
<g transform="translate(14.2264, 23.0322)">
<line stroke-linejoin="round" stroke-linecap="round" stroke-width="0.1000" stroke="currentColor" x1="0.0500" y1="0" x2="99.5346" y2="0"/>
</g>
<g transform="translate(14.2264, 22.0322)">
<line stroke-linejoin="round" stroke-linecap="round" stroke-width="0.1000" stroke="currentColor" x1="0.0500" y1="0" x2="99.5346" y2="0"/>
</g>
<g transform="translate(14.2264, 21.0322)">
<line stroke-linejoin="round" stroke-linecap="round" stroke-width="0.1000" stroke="currentColor" x1="0.0500" y1="0" x2="99.5346" y2="0"/>
</g>
<g transform="translate(113.6210, 23.0322)">
<rect x="0.0000" y="-2.0000" width="0.1900" height="4.0000" ry="0.0000" fill="currentColor"/>
</g>
<g transform="translate(83.3127, 23.0322)">
<rect x="0.0000" y="-2.0000" width="0.1900" height="4.0000" ry="0.0000" fill="currentColor"/>
</g>
<g transform="translate(51.2701, 23.0322)">
<rect x="0.0000" y="-2.0000" width="0.1900" height="4.0000" ry="0.0000" fill="currentColor"/>
</g>
<a style="color:inherit;" xlink:href="textedit:///Users/montoyaedu/TheMessiah/TheMessiah.ly:46:12:20">
<g transform="translate(96.2190, 25.0322)">
<path transform="scale(0.0040, -0.0040)" d="M218 136c55 0 108 -28 108 -89c0 -71 -55 -121 -102 -149c-35 -21 -75 -34 -116 -34c-55 0 -108 28 -108 89c0 71 55 121 102 149c35 21 75 34 116 34z" fill="currentColor"/>
</g>
</a>
<g transform="translate(57.2291, 26.5322)">
<path transform="scale(0.0040, -0.0040)" d="M0 0c0 31 25 56 56 56s56 -25 56 -56s-25 -56 -56 -56s-56 25 -56 56z" fill="currentColor"/>
</g>
<g transform="translate(56.7141, 23.0322)">
<rect x="-0.0650" y="-4.0000" width="0.1300" height="7.3139" ry="0.0400" fill="currentColor"/>
</g>
<a style="color:inherit;" xlink:href="textedit:///Users/montoyaedu/TheMessiah/TheMessiah.ly:26:7:15">
<g transform="translate(54.1896, 27.1013)">
<path transform="scale(0.0022, -0.0022)" d="M129 129h130c0 -52 32 -100 81 -100c10 0 14 -8 14 -15s-4 -14 -14 -14c-49 0 -97 14 -146 14s-96 -14 -145 -14c-10 0 -15 7 -15 14s5 15 15 15c49 0 80 48 80 100zM0 250l129 250c3 7 13 3 21 0c14 -6 28 -14 44 -14s31 8 45 14c2 1 2 1 4 1c8 0 16 -9 16 -21v-351
h-130v215c0 15 -11 23 -20 23c-5 0 -9 -2 -11 -7l-66 -127c-4 -7 -9 -9 -15 -9c-9 0 -19 7 -19 17c0 3 0 6 2 9z" fill="currentColor"/>
</g>
</a>
<g transform="translate(57.2291, 24.5322)">
<path transform="scale(0.0040, -0.0040)" d="M0 0c0 31 25 56 56 56s56 -25 56 -56s-25 -56 -56 -56s-56 25 -56 56z" fill="currentColor"/>
</g>
<a style="color:inherit;" xlink:href="textedit:///Users/montoyaedu/TheMessiah/TheMessiah.ly:26:14:22">
<g transform="translate(54.1896, 25.0934)">
<path transform="scale(0.0022, -0.0022)" d="M155 471c-34 0 -70 -8 -70 -38c0 -19 31 -23 31 -42c0 -28 -23 -51 -51 -51s-51 23 -51 51c0 67 68 109 141 109c93 0 174 -31 174 -113c0 -41 -6 -77 -42 -94c-11 -5 -17 -16 -17 -27s6 -22 17 -27c40 -19 59 -53 59 -98c0 -94 -83 -141 -186 -141
c-82 0 -160 45 -160 119c0 32 26 58 58 58s58 -26 58 -58c0 -22 -36 -26 -36 -48c0 -33 42 -42 80 -42c46 0 56 58 56 112v38c0 40 -4 69 -43 69h-74c-12 0 -18 9 -18 18s6 18 18 18h74c40 0 43 31 43 73v30c0 50 -16 84 -61 84z" fill="currentColor"/>
</g>
</a>
<g transform="translate(57.2291, 21.5322)">
<path transform="scale(0.0040, -0.0040)" d="M0 0c0 31 25 56 56 56s56 -25 56 -56s-25 -56 -56 -56s-56 25 -56 56z" fill="currentColor"/>
</g>
<a style="color:inherit;" xlink:href="textedit:///Users/montoyaedu/TheMessiah/TheMessiah.ly:26:22:30">
<g transform="translate(52.6030, 22.5946)">
<path transform="scale(0.0022, -0.0022)" d="M198 284c24 15 48 29 65 52c12 16 19 34 28 52c2 5 6 7 11 7c8 0 16 -6 16 -17v-217h79c12 0 18 -9 18 -18s-6 -18 -18 -18h-79c2 -51 33 -96 80 -96c10 0 15 -8 15 -15s-5 -14 -15 -14c-49 0 -96 14 -145 14s-97 -14 -146 -14c-10 0 -14 7 -14 14s4 15 14 15
c47 0 79 45 81 96h-152c-29 0 -38 17 -38 28c0 3 1 6 2 8c78 88 123 201 123 319c0 11 8 21 17 21c1 0 3 -1 4 -1c25 -7 50 -14 76 -14s52 7 77 14c2 1 4 1 6 1c10 0 17 -7 17 -14c0 -2 0 -5 -2 -7l-282 -319h152v96c0 10 1 21 10 27z" fill="currentColor"/>
</g>
</a>
<g transform="translate(54.0249, 22.0322)">
<path transform="scale(0.0040, -0.0040)" d="M216 -312c0 -10 -8 -19 -18 -19s-19 9 -19 19v145l-83 -31v-158c0 -10 -9 -19 -19 -19s-18 9 -18 19v145l-32 -12c-2 -1 -5 -1 -7 -1c-11 0 -20 9 -20 20v60c0 8 5 16 13 19l46 16v160l-32 -11c-2 -1 -5 -1 -7 -1c-11 0 -20 9 -20 20v60c0 8 5 15 13 18l46 17v158
c0 10 8 19 18 19s19 -9 19 -19v-145l83 31v158c0 10 9 19 19 19s18 -9 18 -19v-145l32 12c2 1 5 1 7 1c11 0 20 -9 20 -20v-60c0 -8 -5 -16 -13 -19l-46 -16v-160l32 11c2 1 5 1 7 1c11 0 20 -9 20 -20v-60c0 -8 -5 -15 -13 -18l-46 -17v-158zM96 65v-160l83 30v160z" fill="currentColor"/>
</g>
<a style="color:inherit;" xlink:href="textedit:///Users/montoyaedu/TheMessiah/TheMessiah.ly:14:11:26">
<g transform="translate(25.0300, 24.0322)">
<path transform="scale(0.0040, -0.0040)" d="M218 136c55 0 108 -28 108 -89c0 -71 -55 -121 -102 -149c-35 -21 -75 -34 -116 -34c-55 0 -108 28 -108 89c0 71 55 121 102 149c35 21 75 34 116 34z" fill="currentColor"/>
</g>
</a>
<g transform="translate(65.3830, 19.2222)">
<polygon stroke-linejoin="round" stroke-linecap="round" stroke-width="0.0800" fill="currentColor" stroke="currentColor" points="3.0478 0.1100 3.0478 0.5100 0.0400 0.2000 0.0400 -0.2000"/>
</g>
<g transform="translate(65.3830, 20.0322)">
<polygon stroke-linejoin="round" stroke-linecap="round" stroke-width="0.0800" fill="currentColor" stroke="currentColor" points="3.0478 0.1100 3.0478 0.5100 0.0400 0.2000 0.0400 -0.2000"/>
</g>
<a style="color:inherit;" xlink:href="textedit:///Users/montoyaedu/TheMessiah/TheMessiah.ly:32:5:34">
<g transform="translate(64.2088, 27.5322)">
<path transform="scale(0.0040, -0.0040)" d="M218 136c55 0 108 -28 108 -89c0 -71 -55 -121 -102 -149c-35 -21 -75 -34 -116 -34c-55 0 -108 28 -108 89c0 71 55 121 102 149c35 21 75 34 116 34z" fill="currentColor"/>
</g>
</a>
<a style="color:inherit;" xlink:href="textedit:///Users/montoyaedu/TheMessiah/TheMessiah.ly:32:9:38">
<g transform="translate(64.2088, 25.0322)">
<path transform="scale(0.0040, -0.0040)" d="M218 136c55 0 108 -28 108 -89c0 -71 -55 -121 -102 -149c-35 -21 -75 -34 -116 -34c-55 0 -108 28 -108 89c0 71 55 121 102 149c35 21 75 34 116 34z" fill="currentColor"/>
</g>
</a>
<a style="color:inherit;" xlink:href="textedit:///Users/montoyaedu/TheMessiah/TheMessiah.ly:36:8:26">
<g transform="translate(64.2088, 22.5322)">
<path transform="scale(0.0040, -0.0040)" d="M218 136c55 0 108 -28 108 -89c0 -71 -55 -121 -102 -149c-35 -21 -75 -34 -116 -34c-55 0 -108 28 -108 89c0 71 55 121 102 149c35 21 75 34 116 34z" fill="currentColor"/>
</g>
</a>
<g transform="translate(64.2738, 23.0322)">
<rect x="-0.0650" y="2.1861" width="0.1300" height="5.3139" ry="0.0400" fill="currentColor"/>
</g>
<g transform="translate(64.3388, 30.4922)">
<path transform="scale(0.0040, -0.0040)" d="M0 0h-16v250h16v-250zM0 0v250c97 59 224 148 224 259c0 57 -15 112 -40 163c-3 16 10 27 23 27c7 0 15 -3 20 -11c25 -56 40 -117 40 -179c0 -203 -267 -306 -267 -509z" fill="currentColor"/>
</g>
<a style="color:inherit;" xlink:href="textedit:///Users/montoyaedu/TheMessiah/TheMessiah.ly:32:6:35">
<g transform="translate(62.9235, 28.0934)">
<path transform="scale(0.0022, -0.0022)" d="M155 471c-34 0 -70 -8 -70 -38c0 -19 31 -23 31 -42c0 -28 -23 -51 -51 -51s-51 23 -51 51c0 67 68 109 141 109c93 0 174 -31 174 -113c0 -41 -6 -77 -42 -94c-11 -5 -17 -16 -17 -27s6 -22 17 -27c40 -19 59 -53 59 -98c0 -94 -83 -141 -186 -141
c-82 0 -160 45 -160 119c0 32 26 58 58 58s58 -26 58 -58c0 -22 -36 -26 -36 -48c0 -33 42 -42 80 -42c46 0 56 58 56 112v38c0 40 -4 69 -43 69h-74c-12 0 -18 9 -18 18s6 18 18 18h74c40 0 43 31 43 73v30c0 50 -16 84 -61 84z" fill="currentColor"/>
</g>
</a>
<a style="color:inherit;" xlink:href="textedit:///Users/montoyaedu/TheMessiah/TheMessiah.ly:32:11:40">
<g transform="translate(62.9235, 25.6013)">
<path transform="scale(0.0022, -0.0022)" d="M129 129h130c0 -52 32 -100 81 -100c10 0 14 -8 14 -15s-4 -14 -14 -14c-49 0 -97 14 -146 14s-96 -14 -145 -14c-10 0 -15 7 -15 14s5 15 15 15c49 0 80 48 80 100zM0 250l129 250c3 7 13 3 21 0c14 -6 28 -14 44 -14s31 8 45 14c2 1 2 1 4 1c8 0 16 -9 16 -21v-351
h-130v215c0 15 -11 23 -20 23c-5 0 -9 -2 -11 -7l-66 -127c-4 -7 -9 -9 -15 -9c-9 0 -19 7 -19 17c0 3 0 6 2 9z" fill="currentColor"/>
</g>
</a>
<g transform="translate(65.4480, 23.0322)">
<rect x="-0.0650" y="-3.8035" width="0.1300" height="3.1174" ry="0.0400" fill="currentColor"/>
</g>
<a style="color:inherit;" xlink:href="textedit:///Users/montoyaedu/TheMessiah/TheMessiah.ly:36:13:31">
<g transform="translate(61.4052, 23.0934)">
<path transform="scale(0.0022, -0.0022)" d="M129 149h7c36 0 74 -13 111 -40c19 -14 40 -21 59 -21c22 0 40 10 46 31c2 7 7 11 13 11c7 0 15 -5 15 -14v-5c-19 -71 -84 -111 -146 -111c-38 0 -75 15 -101 47c-12 15 -28 22 -44 22c-29 0 -57 -21 -60 -56c-1 -9 -7 -13 -14 -13s-15 5 -15 14c0 173 233 163 233 341
c0 56 -14 116 -62 116c-33 0 -66 -15 -66 -44c0 -24 31 -37 31 -61c0 -34 -27 -61 -61 -61s-61 27 -61 61c0 78 74 134 157 134c98 0 191 -55 191 -145c0 -144 -135 -156 -233 -206z" fill="currentColor"/>
</g>
</a>
<g transform="translate(62.7588, 22.5322)">
<path transform="scale(0.0040, -0.0040)" d="M216 -312c0 -10 -8 -19 -18 -19s-19 9 -19 19v145l-83 -31v-158c0 -10 -9 -19 -19 -19s-18 9 -18 19v145l-32 -12c-2 -1 -5 -1 -7 -1c-11 0 -20 9 -20 20v60c0 8 5 16 13 19l46 16v160l-32 -11c-2 -1 -5 -1 -7 -1c-11 0 -20 9 -20 20v60c0 8 5 15 13 18l46 17v158
c0 10 8 19 18 19s19 -9 19 -19v-145l83 31v158c0 10 9 19 19 19s18 -9 18 -19v-145l32 12c2 1 5 1 7 1c11 0 20 -9 20 -20v-60c0 -8 -5 -16 -13 -19l-46 -16v-160l32 11c2 1 5 1 7 1c11 0 20 -9 20 -20v-60c0 -8 -5 -15 -13 -18l-46 -17v-158zM96 65v-160l83 30v160z" fill="currentColor"/>
</g>
<a style="color:inherit;" xlink:href="textedit:///Users/montoyaedu/TheMessiah/TheMessiah.ly:14:16:31">
<g transform="translate(25.0300, 21.5322)">
<path transform="scale(0.0040, -0.0040)" d="M218 136c55 0 108 -28 108 -89c0 -71 -55 -121 -102 -149c-35 -21 -75 -34 -116 -34c-55 0 -108 28 -108 89c0 71 55 121 102 149c35 21 75 34 116 34z" fill="currentColor"/>
</g>
</a>
<a style="color:inherit;" xlink:href="textedit:///Users/montoyaedu/TheMessiah/TheMessiah.ly:36:20:38">
<g transform="translate(67.1666, 23.0322)">
<path transform="scale(0.0040, -0.0040)" d="M218 136c55 0 108 -28 108 -89c0 -71 -55 -121 -102 -149c-35 -21 -75 -34 -116 -34c-55 0 -108 28 -108 89c0 71 55 121 102 149c35 21 75 34 116 34z" fill="currentColor"/>
</g>
</a>
<g transform="translate(68.4058, 23.0322)">
<rect x="-0.0650" y="-3.5065" width="0.1300" height="3.3204" ry="0.0400" fill="currentColor"/>
</g>
<a style="color:inherit;" xlink:href="textedit:///Users/montoyaedu/TheMessiah/TheMessiah.ly:36:22:40">
<g transform="translate(65.8130, 23.5934)">
<path transform="scale(0.0022, -0.0022)" d="M190 464c-54 0 -61 -71 -61 -141v-73v-73c0 -70 7 -141 61 -141s62 71 62 141c0 26 -1 51 -1 73s1 47 1 73c0 70 -8 141 -62 141zM190 500c118 0 190 -122 190 -250s-72 -250 -190 -250s-190 122 -190 250s72 250 190 250z" fill="currentColor"/>
</g>
</a>
<g transform="translate(15.0264, 24.0322)">
<path transform="scale(0.0040, -0.0040)" d="M266 -635h-6c-108 0 -195 88 -195 197c0 58 53 103 112 103c54 0 95 -47 95 -103c0 -52 -43 -95 -95 -95c-11 0 -21 2 -31 6c26 -39 68 -65 117 -65h4zM461 -203c68 24 113 95 113 164c0 90 -66 179 -173 190c24 -116 46 -231 60 -354zM74 28c0 -135 129 -247 264 -247
c28 0 55 2 82 6c-14 127 -37 245 -63 364c-79 -8 -124 -61 -124 -119c0 -44 25 -91 81 -123c5 -5 7 -10 7 -15c0 -11 -10 -22 -22 -22c-3 0 -6 1 -9 2c-80 43 -117 115 -117 185c0 88 58 174 160 197c-14 58 -29 117 -46 175c-107 -121 -213 -243 -213 -403zM335 -262
c-188 0 -333 172 -333 374c0 177 131 306 248 441c-19 62 -37 125 -45 190c-6 52 -7 104 -7 156c0 115 55 224 149 292c6 5 14 5 20 0c71 -84 133 -245 133 -358c0 -143 -86 -255 -180 -364c21 -68 39 -138 56 -207c4 0 9 1 13 1c155 0 256 -128 256 -261
c0 -76 -33 -154 -107 -210c-22 -17 -47 -28 -73 -36c3 -35 5 -70 5 -105c0 -19 -1 -39 -2 -58c-7 -119 -88 -225 -202 -228l1 43c93 2 153 92 159 191c1 18 2 37 2 55c0 31 -1 61 -4 92c-29 -5 -58 -8 -89 -8zM428 916c0 55 -4 79 -20 129c-99 -48 -162 -149 -162 -259
c0 -74 18 -133 36 -194c80 97 146 198 146 324z" fill="currentColor"/>
</g>
<a style="color:inherit;" xlink:href="textedit:///Users/montoyaedu/TheMessiah/TheMessiah.ly:26:17:25">
<g transform="translate(55.4749, 22.0322)">
<path transform="scale(0.0040, -0.0040)" d="M218 136c55 0 108 -28 108 -89c0 -71 -55 -121 -102 -149c-35 -21 -75 -34 -116 -34c-55 0 -108 28 -108 89c0 71 55 121 102 149c35 21 75 34 116 34z" fill="currentColor"/>
</g>
</a>
<a style="color:inherit;" xlink:href="textedit:///Users/montoyaedu/TheMessiah/TheMessiah.ly:39:6:14">
<g transform="translate(70.1926, 28.0322)">
<path transform="scale(0.0040, -0.0040)" d="M218 136c55 0 108 -28 108 -89c0 -71 -55 -121 -102 -149c-35 -21 -75 -34 -116 -34c-55 0 -108 28 -108 89c0 71 55 121 102 149c35 21 75 34 116 34z" fill="currentColor"/>
</g>
</a>
<a style="color:inherit;" xlink:href="textedit:///Users/montoyaedu/TheMessiah/TheMessiah.ly:39:12:20">
<g transform="translate(70.1926, 23.0322)">
<path transform="scale(0.0040, -0.0040)" d="M218 136c55 0 108 -28 108 -89c0 -71 -55 -121 -102 -149c-35 -21 -75 -34 -116 -34c-55 0 -108 28 -108 89c0 71 55 121 102 149c35 21 75 34 116 34z" fill="currentColor"/>
</g>
</a>
<a style="color:inherit;" xlink:href="textedit:///Users/montoyaedu/TheMessiah/TheMessiah.ly:39:17:25">
<g transform="translate(70.1926, 20.5322)">
<path transform="scale(0.0040, -0.0040)" d="M218 136c55 0 108 -28 108 -89c0 -71 -55 -121 -102 -149c-35 -21 -75 -34 -116 -34c-55 0 -108 28 -108 89c0 71 55 121 102 149c35 21 75 34 116 34z" fill="currentColor"/>
</g>
</a>
<g transform="translate(71.9468, 27.5322)">
<path transform="scale(0.0040, -0.0040)" d="M0 0c0 31 25 56 56 56s56 -25 56 -56s-25 -56 -56 -56s-56 25 -56 56z" fill="currentColor"/>
</g>
<g transform="translate(71.4318, 23.0322)">
<rect x="-0.0650" y="-5.0000" width="0.1300" height="9.8139" ry="0.0400" fill="currentColor"/>
</g>
<a style="color:inherit;" xlink:href="textedit:///Users/montoyaedu/TheMessiah/TheMessiah.ly:39:9:17">
<g transform="translate(68.7708, 28.5934)">
<path transform="scale(0.0022, -0.0022)" d="M129 149h7c36 0 74 -13 111 -40c19 -14 40 -21 59 -21c22 0 40 10 46 31c2 7 7 11 13 11c7 0 15 -5 15 -14v-5c-19 -71 -84 -111 -146 -111c-38 0 -75 15 -101 47c-12 15 -28 22 -44 22c-29 0 -57 -21 -60 -56c-1 -9 -7 -13 -14 -13s-15 5 -15 14c0 173 233 163 233 341
c0 56 -14 116 -62 116c-33 0 -66 -15 -66 -44c0 -24 31 -37 31 -61c0 -34 -27 -61 -61 -61s-61 27 -61 61c0 78 74 134 157 134c98 0 191 -55 191 -145c0 -144 -135 -156 -233 -206z" fill="currentColor"/>
</g>
</a>
<g transform="translate(71.9468, 22.5322)">
<path transform="scale(0.0040, -0.0040)" d="M0 0c0 31 25 56 56 56s56 -25 56 -56s-25 -56 -56 -56s-56 25 -56 56z" fill="currentColor"/>
</g>
<a style="color:inherit;" xlink:href="textedit:///Users/montoyaedu/TheMessiah/TheMessiah.ly:39:14:22">
<g transform="translate(68.7708, 23.5934)">
<path transform="scale(0.0022, -0.0022)" d="M190 464c-54 0 -61 -71 -61 -141v-73v-73c0 -70 7 -141 61 -141s62 71 62 141c0 26 -1 51 -1 73s1 47 1 73c0 70 -8 141 -62 141zM190 500c118 0 190 -122 190 -250s-72 -250 -190 -250s-190 122 -190 250s72 250 190 250z" fill="currentColor"/>
</g>
</a>
<g transform="translate(71.9468, 20.5322)">
<path transform="scale(0.0040, -0.0040)" d="M0 0c0 31 25 56 56 56s56 -25 56 -56s-25 -56 -56 -56s-56 25 -56 56z" fill="currentColor"/>
</g>
<a style="color:inherit;" xlink:href="textedit:///Users/montoyaedu/TheMessiah/TheMessiah.ly:39:20:28">
<g transform="translate(68.7708, 21.0946)">
<path transform="scale(0.0022, -0.0022)" d="M198 284c24 15 48 29 65 52c12 16 19 34 28 52c2 5 6 7 11 7c8 0 16 -6 16 -17v-217h79c12 0 18 -9 18 -18s-6 -18 -18 -18h-79c2 -51 33 -96 80 -96c10 0 15 -8 15 -15s-5 -14 -15 -14c-49 0 -96 14 -145 14s-97 -14 -146 -14c-10 0 -14 7 -14 14s4 15 14 15
c47 0 79 45 81 96h-152c-29 0 -38 17 -38 28c0 3 1 6 2 8c78 88 123 201 123 319c0 11 8 21 17 21c1 0 3 -1 4 -1c25 -7 50 -14 76 -14s52 7 77 14c2 1 4 1 6 1c10 0 17 -7 17 -14c0 -2 0 -5 -2 -7l-282 -319h152v96c0 10 1 21 10 27z" fill="currentColor"/>
</g>
</a>
<a style="color:inherit;" xlink:href="textedit:///Users/montoyaedu/TheMessiah/TheMessiah.ly:10:1:9">
<g transform="translate(18.5264, 21.0322)">
<path transform="scale(0.0040, -0.0040)" d="M216 -312c0 -10 -8 -19 -18 -19s-19 9 -19 19v145l-83 -31v-158c0 -10 -9 -19 -19 -19s-18 9 -18 19v145l-32 -12c-2 -1 -5 -1 -7 -1c-11 0 -20 9 -20 20v60c0 8 5 16 13 19l46 16v160l-32 -11c-2 -1 -5 -1 -7 -1c-11 0 -20 9 -20 20v60c0 8 5 15 13 18l46 17v158
c0 10 8 19 18 19s19 -9 19 -19v-145l83 31v158c0 10 9 19 19 19s18 -9 18 -19v-145l32 12c2 1 5 1 7 1c11 0 20 -9 20 -20v-60c0 -8 -5 -16 -13 -19l-46 -16v-160l32 11c2 1 5 1 7 1c11 0 20 -9 20 -20v-60c0 -8 -5 -15 -13 -18l-46 -17v-158zM96 65v-160l83 30v160z" fill="currentColor"/>
</g>
</a>
<a style="color:inherit;" xlink:href="textedit:///Users/montoyaedu/TheMessiah/TheMessiah.ly:26:10:18">
<g transform="translate(55.4749, 24.5322)">
<path transform="scale(0.0040, -0.0040)" d="M218 136c55 0 108 -28 108 -89c0 -71 -55 -121 -102 -149c-35 -21 -75 -34 -116 -34c-55 0 -108 28 -108 89c0 71 55 121 102 149c35 21 75 34 116 34z" fill="currentColor"/>
</g>
</a>
<a style="color:inherit;" xlink:href="textedit:///Users/montoyaedu/TheMessiah/TheMessiah.ly:40:6:14">
<g transform="translate(79.0307, 28.5322)">
<path transform="scale(0.0040, -0.0040)" d="M218 136c55 0 108 -28 108 -89c0 -71 -55 -121 -102 -149c-35 -21 -75 -34 -116 -34c-55 0 -108 28 -108 89c0 71 55 121 102 149c35 21 75 34 116 34z" fill="currentColor"/>
</g>
</a>
<a style="color:inherit;" xlink:href="textedit:///Users/montoyaedu/TheMessiah/TheMessiah.ly:40:10:18">
<g transform="translate(79.0307, 23.0322)">
<path transform="scale(0.0040, -0.0040)" d="M218 136c55 0 108 -28 108 -89c0 -71 -55 -121 -102 -149c-35 -21 -75 -34 -116 -34c-55 0 -108 28 -108 89c0 71 55 121 102 149c35 21 75 34 116 34z" fill="currentColor"/>
</g>
</a>
<a style="color:inherit;" xlink:href="textedit:///Users/montoyaedu/TheMessiah/TheMessiah.ly:40:15:23">
<g transform="translate(79.0307, 20.5322)">
<path transform="scale(0.0040, -0.0040)" d="M218 136c55 0 108 -28 108 -89c0 -71 -55 -121 -102 -149c-35 -21 -75 -34 -116 -34c-55 0 -108 28 -108 89c0 71 55 121 102 149c35 21 75 34 116 34z" fill="currentColor"/>
</g>
</a>
<g transform="translate(80.2700, 23.0322)">
<rect x="-0.0650" y="-5.5000" width="0.1300" height="10.8139" ry="0.0400" fill="currentColor"/>
</g>
<g transform="translate(80.3350, 17.5722)">
<path transform="scale(0.0040, -0.0040)" d="M0 0v-250h-16v250h16zM0 0c0 -197 207 -336 207 -533c0 -71 -15 -141 -41 -207c-5 -8 -13 -12 -20 -12c-13 0 -26 11 -23 27c26 61 42 126 42 192c0 103 -94 208 -165 283v250z" fill="currentColor"/>
</g>
<a style="color:inherit;" xlink:href="textedit:///Users/montoyaedu/TheMessiah/TheMessiah.ly:40:7:15">
<g transform="translate(77.6089, 29.0934)">
<path transform="scale(0.0022, -0.0022)" d="M190 464c-54 0 -61 -71 -61 -141v-73v-73c0 -70 7 -141 61 -141s62 71 62 141c0 26 -1 51 -1 73s1 47 1 73c0 70 -8 141 -62 141zM190 500c118 0 190 -122 190 -250s-72 -250 -190 -250s-190 122 -190 250s72 250 190 250z" fill="currentColor"/>
</g>
</a>
<a style="color:inherit;" xlink:href="textedit:///Users/montoyaedu/TheMessiah/TheMessiah.ly:40:12:20">
<g transform="translate(77.6089, 23.5934)">
<path transform="scale(0.0022, -0.0022)" d="M190 464c-54 0 -61 -71 -61 -141v-73v-73c0 -70 7 -141 61 -141s62 71 62 141c0 26 -1 51 -1 73s1 47 1 73c0 70 -8 141 -62 141zM190 500c118 0 190 -122 190 -250s-72 -250 -190 -250s-190 122 -190 250s72 250 190 250z" fill="currentColor"/>
</g>
</a>
<a style="color:inherit;" xlink:href="textedit:///Users/montoyaedu/TheMessiah/TheMessiah.ly:40:18:26">
<g transform="translate(77.6089, 21.0946)">
<path transform="scale(0.0022, -0.0022)" d="M198 284c24 15 48 29 65 52c12 16 19 34 28 52c2 5 6 7 11 7c8 0 16 -6 16 -17v-217h79c12 0 18 -9 18 -18s-6 -18 -18 -18h-79c2 -51 33 -96 80 -96c10 0 15 -8 15 -15s-5 -14 -15 -14c-49 0 -96 14 -145 14s-97 -14 -146 -14c-10 0 -14 7 -14 14s4 15 14 15
c47 0 79 45 81 96h-152c-29 0 -38 17 -38 28c0 3 1 6 2 8c78 88 123 201 123 319c0 11 8 21 17 21c1 0 3 -1 4 -1c25 -7 50 -14 76 -14s52 7 77 14c2 1 4 1 6 1c10 0 17 -7 17 -14c0 -2 0 -5 -2 -7l-282 -319h152v96c0 10 1 21 10 27z" fill="currentColor"/>
</g>
</a>
<a style="color:inherit;" xlink:href="textedit:///Users/montoyaedu/TheMessiah/TheMessiah.ly:26:6:14">
<g transform="translate(55.4749, 26.5322)">
<path transform="scale(0.0040, -0.0040)" d="M218 136c55 0 108 -28 108 -89c0 -71 -55 -121 -102 -149c-35 -21 -75 -34 -116 -34c-55 0 -108 28 -108 89c0 71 55 121 102 149c35 21 75 34 116 34z" fill="currentColor"/>
</g>
</a>
<a style="color:inherit;" xlink:href="textedit:///Users/montoyaedu/TheMessiah/TheMessiah.ly:45:6:14">
<g transform="translate(87.3809, 27.0322)">
<path transform="scale(0.0040, -0.0040)" d="M218 136c55 0 108 -28 108 -89c0 -71 -55 -121 -102 -149c-35 -21 -75 -34 -116 -34c-55 0 -108 28 -108 89c0 71 55 121 102 149c35 21 75 34 116 34z" fill="currentColor"/>
</g>
</a>
<a style="color:inherit;" xlink:href="textedit:///Users/montoyaedu/TheMessiah/TheMessiah.ly:45:12:20">
<g transform="translate(87.3809, 25.0322)">
<path transform="scale(0.0040, -0.0040)" d="M218 136c55 0 108 -28 108 -89c0 -71 -55 -121 -102 -149c-35 -21 -75 -34 -116 -34c-55 0 -108 28 -108 89c0 71 55 121 102 149c35 21 75 34 116 34z" fill="currentColor"/>
</g>
</a>
<a style="color:inherit;" xlink:href="textedit:///Users/montoyaedu/TheMessiah/TheMessiah.ly:45:17:25">
<g transform="translate(87.3809, 22.5322)">
<path transform="scale(0.0040, -0.0040)" d="M218 136c55 0 108 -28 108 -89c0 -71 -55 -121 -102 -149c-35 -21 -75 -34 -116 -34c-55 0 -108 28 -108 89c0 71 55 121 102 149c35 21 75 34 116 34z" fill="currentColor"/>
</g>
</a>
<a style="color:inherit;" xlink:href="textedit:///Users/montoyaedu/TheMessiah/TheMessiah.ly:45:25:33">
<g transform="translate(87.3809, 20.5322)">
<path transform="scale(0.0040, -0.0040)" d="M218 136c55 0 108 -28 108 -89c0 -71 -55 -121 -102 -149c-35 -21 -75 -34 -116 -34c-55 0 -108 28 -108 89c0 71 55 121 102 149c35 21 75 34 116 34z" fill="currentColor"/>
</g>
</a>
<g transform="translate(89.1351, 26.5322)">
<path transform="scale(0.0040, -0.0040)" d="M0 0c0 31 25 56 56 56s56 -25 56 -56s-25 -56 -56 -56s-56 25 -56 56z" fill="currentColor"/>
</g>
<g transform="translate(88.6201, 23.0322)">
<rect x="-0.0650" y="-5.0000" width="0.1300" height="8.8139" ry="0.0400" fill="currentColor"/>
</g>
<a style="color:inherit;" xlink:href="textedit:///Users/montoyaedu/TheMessiah/TheMessiah.ly:45:9:17">
<g transform="translate(84.6456, 27.6013)">
<path transform="scale(0.0022, -0.0022)" d="M129 129h130c0 -52 32 -100 81 -100c10 0 14 -8 14 -15s-4 -14 -14 -14c-49 0 -97 14 -146 14s-96 -14 -145 -14c-10 0 -15 7 -15 14s5 15 15 15c49 0 80 48 80 100zM0 250l129 250c3 7 13 3 21 0c14 -6 28 -14 44 -14s31 8 45 14c2 1 2 1 4 1c8 0 16 -9 16 -21v-351
h-130v215c0 15 -11 23 -20 23c-5 0 -9 -2 -11 -7l-66 -127c-4 -7 -9 -9 -15 -9c-9 0 -19 7 -19 17c0 3 0 6 2 9z" fill="currentColor"/>
</g>
</a>
<g transform="translate(89.1351, 24.5322)">
<path transform="scale(0.0040, -0.0040)" d="M0 0c0 31 25 56 56 56s56 -25 56 -56s-25 -56 -56 -56s-56 25 -56 56z" fill="currentColor"/>
</g>
<a style="color:inherit;" xlink:href="textedit:///Users/montoyaedu/TheMessiah/TheMessiah.ly:45:14:22">
<g transform="translate(85.2310, 25.5934)">
<path transform="scale(0.0022, -0.0022)" d="M129 149h7c36 0 74 -13 111 -40c19 -14 40 -21 59 -21c22 0 40 10 46 31c2 7 7 11 13 11c7 0 15 -5 15 -14v-5c-19 -71 -84 -111 -146 -111c-38 0 -75 15 -101 47c-12 15 -28 22 -44 22c-29 0 -57 -21 -60 -56c-1 -9 -7 -13 -14 -13s-15 5 -15 14c0 173 233 163 233 341
c0 56 -14 116 -62 116c-33 0 -66 -15 -66 -44c0 -24 31 -37 31 -61c0 -34 -27 -61 -61 -61s-61 27 -61 61c0 78 74 134 157 134c98 0 191 -55 191 -145c0 -144 -135 -156 -233 -206z" fill="currentColor"/>
</g>
</a>
<g transform="translate(89.1351, 22.5322)">
<path transform="scale(0.0040, -0.0040)" d="M0 0c0 31 25 56 56 56s56 -25 56 -56s-25 -56 -56 -56s-56 25 -56 56z" fill="currentColor"/>
</g>
<a style="color:inherit;" xlink:href="textedit:///Users/montoyaedu/TheMessiah/TheMessiah.ly:45:22:30">
<g transform="translate(84.6456, 23.0934)">
<path transform="scale(0.0022, -0.0022)" d="M155 471c-34 0 -70 -8 -70 -38c0 -19 31 -23 31 -42c0 -28 -23 -51 -51 -51s-51 23 -51 51c0 67 68 109 141 109c93 0 174 -31 174 -113c0 -41 -6 -77 -42 -94c-11 -5 -17 -16 -17 -27s6 -22 17 -27c40 -19 59 -53 59 -98c0 -94 -83 -141 -186 -141
c-82 0 -160 45 -160 119c0 32 26 58 58 58s58 -26 58 -58c0 -22 -36 -26 -36 -48c0 -33 42 -42 80 -42c46 0 56 58 56 112v38c0 40 -4 69 -43 69h-74c-12 0 -18 9 -18 18s6 18 18 18h74c40 0 43 31 43 73v30c0 50 -16 84 -61 84z" fill="currentColor"/>
</g>
</a>
<g transform="translate(89.1351, 20.5322)">
<path transform="scale(0.0040, -0.0040)" d="M0 0c0 31 25 56 56 56s56 -25 56 -56s-25 -56 -56 -56s-56 25 -56 56z" fill="currentColor"/>
</g>
<a style="color:inherit;" xlink:href="textedit:///Users/montoyaedu/TheMessiah/TheMessiah.ly:45:28:36">
<g transform="translate(85.2310, 21.0946)">
<path transform="scale(0.0022, -0.0022)" d="M198 284c24 15 48 29 65 52c12 16 19 34 28 52c2 5 6 7 11 7c8 0 16 -6 16 -17v-217h79c12 0 18 -9 18 -18s-6 -18 -18 -18h-79c2 -51 33 -96 80 -96c10 0 15 -8 15 -15s-5 -14 -15 -14c-49 0 -96 14 -145 14s-97 -14 -146 -14c-10 0 -14 7 -14 14s4 15 14 15
c47 0 79 45 81 96h-152c-29 0 -38 17 -38 28c0 3 1 6 2 8c78 88 123 201 123 319c0 11 8 21 17 21c1 0 3 -1 4 -1c25 -7 50 -14 76 -14s52 7 77 14c2 1 4 1 6 1c10 0 17 -7 17 -14c0 -2 0 -5 -2 -7l-282 -319h152v96c0 10 1 21 10 27z" fill="currentColor"/>
</g>
</a>
<g transform="translate(20.7764, 23.0322)">
<path transform="scale(0.0040, -0.0040)" d="M359 27c-49 0 -75 42 -75 75c0 38 27 77 72 77c4 0 9 0 14 -1c-28 37 -72 59 -120 59c-106 0 -113 -73 -113 -186v-51v-51c0 -113 7 -187 113 -187c80 0 139 70 158 151c2 7 7 10 12 10c6 0 13 -4 13 -12c0 -94 -105 -174 -183 -174c-68 0 -137 21 -184 70
c-49 51 -66 122 -66 193s17 142 66 193c47 49 116 69 184 69c87 0 160 -63 175 -149c1 -5 1 -10 1 -14c0 -40 -30 -72 -67 -72z" fill="currentColor"/>
</g>
<g transform="translate(85.9309, 27.0322)">
<path transform="scale(0.0040, -0.0040)" d="M216 -312c0 -10 -8 -19 -18 -19s-19 9 -19 19v145l-83 -31v-158c0 -10 -9 -19 -19 -19s-18 9 -18 19v145l-32 -12c-2 -1 -5 -1 -7 -1c-11 0 -20 9 -20 20v60c0 8 5 16 13 19l46 16v160l-32 -11c-2 -1 -5 -1 -7 -1c-11 0 -20 9 -20 20v60c0 8 5 15 13 18l46 17v158
c0 10 8 19 18 19s19 -9 19 -19v-145l83 31v158c0 10 9 19 19 19s18 -9 18 -19v-145l32 12c2 1 5 1 7 1c11 0 20 -9 20 -20v-60c0 -8 -5 -16 -13 -19l-46 -16v-160l32 11c2 1 5 1 7 1c11 0 20 -9 20 -20v-60c0 -8 -5 -15 -13 -18l-46 -17v-158zM96 65v-160l83 30v160z" fill="currentColor"/>
</g>
<g transform="translate(85.9309, 22.5322)">
<path transform="scale(0.0040, -0.0040)" d="M216 -312c0 -10 -8 -19 -18 -19s-19 9 -19 19v145l-83 -31v-158c0 -10 -9 -19 -19 -19s-18 9 -18 19v145l-32 -12c-2 -1 -5 -1 -7 -1c-11 0 -20 9 -20 20v60c0 8 5 16 13 19l46 16v160l-32 -11c-2 -1 -5 -1 -7 -1c-11 0 -20 9 -20 20v60c0 8 5 15 13 18l46 17v158
c0 10 8 19 18 19s19 -9 19 -19v-145l83 31v158c0 10 9 19 19 19s18 -9 18 -19v-145l32 12c2 1 5 1 7 1c11 0 20 -9 20 -20v-60c0 -8 -5 -16 -13 -19l-46 -16v-160l32 11c2 1 5 1 7 1c11 0 20 -9 20 -20v-60c0 -8 -5 -15 -13 -18l-46 -17v-158zM96 65v-160l83 30v160z" fill="currentColor"/>
</g>
<a style="color:inherit;" xlink:href="textedit:///Users/montoyaedu/TheMessiah/TheMessiah.ly:46:6:14">
<g transform="translate(96.2190, 27.0322)">
<path transform="scale(0.0040, -0.0040)" d="M218 136c55 0 108 -28 108 -89c0 -71 -55 -121 -102 -149c-35 -21 -75 -34 -116 -34c-55 0 -108 28 -108 89c0 71 55 121 102 149c35 21 75 34 116 34z" fill="currentColor"/>
</g>
</a>
<a style="color:inherit;" xlink:href="textedit:///Users/montoyaedu/TheMessiah/TheMessiah.ly:21:2:17">
<g transform="translate(48.6721, 19.5222)">
<line stroke-linejoin="round" stroke-linecap="round" stroke-width="0.1000" stroke="currentColor" x1="0" y1="0" x2="7.2048" y2="-0.0000" stroke-dasharray="0.6549857662002784,2.6199430648011135"/>
</g>
<g transform="translate(47.2381, 19.5222)">
<text font-family="serif" font-style="italic" font-size="2.2001" text-anchor="start" fill="currentColor">
<tspan>II</tspan>
</text>
</g>
</a>
<a style="color:inherit;" xlink:href="textedit:///Users/montoyaedu/TheMessiah/TheMessiah.ly:46:17:25">
<g transform="translate(96.2190, 22.5322)">
<path transform="scale(0.0040, -0.0040)" d="M218 136c55 0 108 -28 108 -89c0 -71 -55 -121 -102 -149c-35 -21 -75 -34 -116 -34c-55 0 -108 28 -108 89c0 71 55 121 102 149c35 21 75 34 116 34z" fill="currentColor"/>
</g>
</a>
<a style="color:inherit;" xlink:href="textedit:///Users/montoyaedu/TheMessiah/TheMessiah.ly:46:25:33">
<g transform="translate(96.2190, 21.0322)">
<path transform="scale(0.0040, -0.0040)" d="M218 136c55 0 108 -28 108 -89c0 -71 -55 -121 -102 -149c-35 -21 -75 -34 -116 -34c-55 0 -108 28 -108 89c0 71 55 121 102 149c35 21 75 34 116 34z" fill="currentColor"/>
</g>
</a>
<g transform="translate(97.4582, 23.0322)">
<rect x="-0.0650" y="-5.0000" width="0.1300" height="8.8139" ry="0.0400" fill="currentColor"/>
</g>
<g transform="translate(97.5232, 18.0722)">
<path transform="scale(0.0040, -0.0040)" d="M0 0v-250h-16v250h16zM0 0c0 -197 207 -336 207 -533c0 -71 -15 -141 -41 -207c-5 -8 -13 -12 -20 -12c-13 0 -26 11 -23 27c26 61 42 126 42 192c0 103 -94 208 -165 283v250z" fill="currentColor"/>
</g>
<a style="color:inherit;" xlink:href="textedit:///Users/montoyaedu/TheMessiah/TheMessiah.ly:46:9:17">
<g transform="translate(94.7972, 27.6013)">
<path transform="scale(0.0022, -0.0022)" d="M129 129h130c0 -52 32 -100 81 -100c10 0 14 -8 14 -15s-4 -14 -14 -14c-49 0 -97 14 -146 14s-96 -14 -145 -14c-10 0 -15 7 -15 14s5 15 15 15c49 0 80 48 80 100zM0 250l129 250c3 7 13 3 21 0c14 -6 28 -14 44 -14s31 8 45 14c2 1 2 1 4 1c8 0 16 -9 16 -21v-351
h-130v215c0 15 -11 23 -20 23c-5 0 -9 -2 -11 -7l-66 -127c-4 -7 -9 -9 -15 -9c-9 0 -19 7 -19 17c0 3 0 6 2 9z" fill="currentColor"/>
</g>
</a>
<a style="color:inherit;" xlink:href="textedit:///Users/montoyaedu/TheMessiah/TheMessiah.ly:46:14:22">
<g transform="translate(94.7972, 25.5934)">
<path transform="scale(0.0022, -0.0022)" d="M129 149h7c36 0 74 -13 111 -40c19 -14 40 -21 59 -21c22 0 40 10 46 31c2 7 7 11 13 11c7 0 15 -5 15 -14v-5c-19 -71 -84 -111 -146 -111c-38 0 -75 15 -101 47c-12 15 -28 22 -44 22c-29 0 -57 -21 -60 -56c-1 -9 -7 -13 -14 -13s-15 5 -15 14c0 173 233 163 233 341
c0 56 -14 116 -62 116c-33 0 -66 -15 -66 -44c0 -24 31 -37 31 -61c0 -34 -27 -61 -61 -61s-61 27 -61 61c0 78 74 134 157 134c98 0 191 -55 191 -145c0 -144 -135 -156 -233 -206z" fill="currentColor"/>
</g>
</a>
<a style="color:inherit;" xlink:href="textedit:///Users/montoyaedu/TheMessiah/TheMessiah.ly:46:22:30">
<g transform="translate(94.7972, 23.0934)">
<path transform="scale(0.0022, -0.0022)" d="M155 471c-34 0 -70 -8 -70 -38c0 -19 31 -23 31 -42c0 -28 -23 -51 -51 -51s-51 23 -51 51c0 67 68 109 141 109c93 0 174 -31 174 -113c0 -41 -6 -77 -42 -94c-11 -5 -17 -16 -17 -27s6 -22 17 -27c40 -19 59 -53 59 -98c0 -94 -83 -141 -186 -141
c-82 0 -160 45 -160 119c0 32 26 58 58 58s58 -26 58 -58c0 -22 -36 -26 -36 -48c0 -33 42 -42 80 -42c46 0 56 58 56 112v38c0 40 -4 69 -43 69h-74c-12 0 -18 9 -18 18s6 18 18 18h74c40 0 43 31 43 73v30c0 50 -16 84 -61 84z" fill="currentColor"/>
</g>
</a>
<a style="color:inherit;" xlink:href="textedit:///Users/montoyaedu/TheMessiah/TheMessiah.ly:46:30:38">
<g transform="translate(94.7972, 21.5946)">
<path transform="scale(0.0022, -0.0022)" d="M198 284c24 15 48 29 65 52c12 16 19 34 28 52c2 5 6 7 11 7c8 0 16 -6 16 -17v-217h79c12 0 18 -9 18 -18s-6 -18 -18 -18h-79c2 -51 33 -96 80 -96c10 0 15 -8 15 -15s-5 -14 -15 -14c-49 0 -96 14 -145 14s-97 -14 -146 -14c-10 0 -14 7 -14 14s4 15 14 15
c47 0 79 45 81 96h-152c-29 0 -38 17 -38 28c0 3 1 6 2 8c78 88 123 201 123 319c0 11 8 21 17 21c1 0 3 -1 4 -1c25 -7 50 -14 76 -14s52 7 77 14c2 1 4 1 6 1c10 0 17 -7 17 -14c0 -2 0 -5 -2 -7l-282 -319h152v96c0 10 1 21 10 27z" fill="currentColor"/>
</g>
</a>
<g transform="translate(26.7842, 28.5322)">
<path transform="scale(0.0040, -0.0040)" d="M0 0c0 31 25 56 56 56s56 -25 56 -56s-25 -56 -56 -56s-56 25 -56 56z" fill="currentColor"/>
</g>
<a style="color:inherit;" xlink:href="textedit:///Users/montoyaedu/TheMessiah/TheMessiah.ly:47:6:14">
<g transform="translate(100.5010, 27.0322)">
<path transform="scale(0.0040, -0.0040)" d="M218 136c55 0 108 -28 108 -89c0 -71 -55 -121 -102 -149c-35 -21 -75 -34 -116 -34c-55 0 -108 28 -108 89c0 71 55 121 102 149c35 21 75 34 116 34z" fill="currentColor"/>
</g>
</a>
<a style="color:inherit;" xlink:href="textedit:///Users/montoyaedu/TheMessiah/TheMessiah.ly:47:12:20">
<g transform="translate(100.5010, 22.5322)">
<path transform="scale(0.0040, -0.0040)" d="M218 136c55 0 108 -28 108 -89c0 -71 -55 -121 -102 -149c-35 -21 -75 -34 -116 -34c-55 0 -108 28 -108 89c0 71 55 121 102 149c35 21 75 34 116 34z" fill="currentColor"/>
</g>
</a>
<a style="color:inherit;" xlink:href="textedit:///Users/montoyaedu/TheMessiah/TheMessiah.ly:47:20:28">
<g transform="translate(100.5010, 21.0322)">
<path transform="scale(0.0040, -0.0040)" d="M218 136c55 0 108 -28 108 -89c0 -71 -55 -121 -102 -149c-35 -21 -75 -34 -116 -34c-55 0 -108 28 -108 89c0 71 55 121 102 149c35 21 75 34 116 34z" fill="currentColor"/>
</g>
</a>
<g transform="translate(102.2552, 26.5322)">
<path transform="scale(0.0040, -0.0040)" d="M0 0c0 31 25 56 56 56s56 -25 56 -56s-25 -56 -56 -56s-56 25 -56 56z" fill="currentColor"/>
</g>
<g transform="translate(101.7402, 23.0322)">
<rect x="-0.0650" y="-4.6667" width="0.1300" height="8.4806" ry="0.0400" fill="currentColor"/>
</g>
<a style="color:inherit;" xlink:href="textedit:///Users/montoyaedu/TheMessiah/TheMessiah.ly:47:9:17">
<g transform="translate(99.0791, 27.6013)">
<path transform="scale(0.0022, -0.0022)" d="M129 129h130c0 -52 32 -100 81 -100c10 0 14 -8 14 -15s-4 -14 -14 -14c-49 0 -97 14 -146 14s-96 -14 -145 -14c-10 0 -15 7 -15 14s5 15 15 15c49 0 80 48 80 100zM0 250l129 250c3 7 13 3 21 0c14 -6 28 -14 44 -14s31 8 45 14c2 1 2 1 4 1c8 0 16 -9 16 -21v-351
h-130v215c0 15 -11 23 -20 23c-5 0 -9 -2 -11 -7l-66 -127c-4 -7 -9 -9 -15 -9c-9 0 -19 7 -19 17c0 3 0 6 2 9z" fill="currentColor"/>
</g>
</a>
<g transform="translate(102.2552, 22.5322)">
<path transform="scale(0.0040, -0.0040)" d="M0 0c0 31 25 56 56 56s56 -25 56 -56s-25 -56 -56 -56s-56 25 -56 56z" fill="currentColor"/>
</g>
<a style="color:inherit;" xlink:href="textedit:///Users/montoyaedu/TheMessiah/TheMessiah.ly:47:17:25">
<g transform="translate(99.0791, 23.0934)">
<path transform="scale(0.0022, -0.0022)" d="M155 471c-34 0 -70 -8 -70 -38c0 -19 31 -23 31 -42c0 -28 -23 -51 -51 -51s-51 23 -51 51c0 67 68 109 141 109c93 0 174 -31 174 -113c0 -41 -6 -77 -42 -94c-11 -5 -17 -16 -17 -27s6 -22 17 -27c40 -19 59 -53 59 -98c0 -94 -83 -141 -186 -141
c-82 0 -160 45 -160 119c0 32 26 58 58 58s58 -26 58 -58c0 -22 -36 -26 -36 -48c0 -33 42 -42 80 -42c46 0 56 58 56 112v38c0 40 -4 69 -43 69h-74c-12 0 -18 9 -18 18s6 18 18 18h74c40 0 43 31 43 73v30c0 50 -16 84 -61 84z" fill="currentColor"/>
</g>
</a>
<g transform="translate(102.2552, 20.5322)">
<path transform="scale(0.0040, -0.0040)" d="M0 0c0 31 25 56 56 56s56 -25 56 -56s-25 -56 -56 -56s-56 25 -56 56z" fill="currentColor"/>
</g>
<a style="color:inherit;" xlink:href="textedit:///Users/montoyaedu/TheMessiah/TheMessiah.ly:47:25:33">
<g transform="translate(99.0791, 21.5946)">
<path transform="scale(0.0022, -0.0022)" d="M198 284c24 15 48 29 65 52c12 16 19 34 28 52c2 5 6 7 11 7c8 0 16 -6 16 -17v-217h79c12 0 18 -9 18 -18s-6 -18 -18 -18h-79c2 -51 33 -96 80 -96c10 0 15 -8 15 -15s-5 -14 -15 -14c-49 0 -96 14 -145 14s-97 -14 -146 -14c-10 0 -14 7 -14 14s4 15 14 15
c47 0 79 45 81 96h-152c-29 0 -38 17 -38 28c0 3 1 6 2 8c78 88 123 201 123 319c0 11 8 21 17 21c1 0 3 -1 4 -1c25 -7 50 -14 76 -14s52 7 77 14c2 1 4 1 6 1c10 0 17 -7 17 -14c0 -2 0 -5 -2 -7l-282 -319h152v96c0 10 1 21 10 27z" fill="currentColor"/>
</g>
</a>
<g transform="translate(26.2692, 23.0322)">
<rect x="-0.0650" y="-4.3333" width="0.1300" height="9.6472" ry="0.0400" fill="currentColor"/>
</g>
<a style="color:inherit;" xlink:href="textedit:///Users/montoyaedu/TheMessiah/TheMessiah.ly:48:6:14">
<g transform="translate(109.3391, 28.0322)">
<path transform="scale(0.0040, -0.0040)" d="M218 136c55 0 108 -28 108 -89c0 -71 -55 -121 -102 -149c-35 -21 -75 -34 -116 -34c-55 0 -108 28 -108 89c0 71 55 121 102 149c35 21 75 34 116 34z" fill="currentColor"/>
</g>
</a>
<a style="color:inherit;" xlink:href="textedit:///Users/montoyaedu/TheMessiah/TheMessiah.ly:48:12:20">
<g transform="translate(109.3391, 23.5322)">
<path transform="scale(0.0040, -0.0040)" d="M218 136c55 0 108 -28 108 -89c0 -71 -55 -121 -102 -149c-35 -21 -75 -34 -116 -34c-55 0 -108 28 -108 89c0 71 55 121 102 149c35 21 75 34 116 34z" fill="currentColor"/>
</g>
</a>
<a style="color:inherit;" xlink:href="textedit:///Users/montoyaedu/TheMessiah/TheMessiah.ly:48:19:27">
<g transform="translate(109.3391, 22.5322)">
<path transform="scale(0.0040, -0.0040)" d="M218 136c55 0 108 -28 108 -89c0 -71 -55 -121 -102 -149c-35 -21 -75 -34 -116 -34c-55 0 -108 28 -108 89c0 71 55 121 102 149c35 21 75 34 116 34z" fill="currentColor"/>
</g>
</a>
<a style="color:inherit;" xlink:href="textedit:///Users/montoyaedu/TheMessiah/TheMessiah.ly:48:27:35">
<g transform="translate(109.3391, 21.5322)">
<path transform="scale(0.0040, -0.0040)" d="M218 136c55 0 108 -28 108 -89c0 -71 -55 -121 -102 -149c-35 -21 -75 -34 -116 -34c-55 0 -108 28 -108 89c0 71 55 121 102 149c35 21 75 34 116 34z" fill="currentColor"/>
</g>
</a>
<g transform="translate(110.5783, 23.0322)">
<rect x="-0.0650" y="-4.5000" width="0.1300" height="9.3139" ry="0.0400" fill="currentColor"/>
</g>
<g transform="translate(110.6433, 18.5722)">
<path transform="scale(0.0040, -0.0040)" d="M0 0v-250h-16v250h16zM0 0c0 -197 207 -336 207 -533c0 -71 -15 -141 -41 -207c-5 -8 -13 -12 -20 -12c-13 0 -26 11 -23 27c26 61 42 126 42 192c0 103 -94 208 -165 283v250z" fill="currentColor"/>
</g>
<a style="color:inherit;" xlink:href="textedit:///Users/montoyaedu/TheMessiah/TheMessiah.ly:48:9:17">
<g transform="translate(108.0538, 28.6013)">
<path transform="scale(0.0022, -0.0022)" d="M129 129h130c0 -52 32 -100 81 -100c10 0 14 -8 14 -15s-4 -14 -14 -14c-49 0 -97 14 -146 14s-96 -14 -145 -14c-10 0 -15 7 -15 14s5 15 15 15c49 0 80 48 80 100zM0 250l129 250c3 7 13 3 21 0c14 -6 28 -14 44 -14s31 8 45 14c2 1 2 1 4 1c8 0 16 -9 16 -21v-351
h-130v215c0 15 -11 23 -20 23c-5 0 -9 -2 -11 -7l-66 -127c-4 -7 -9 -9 -15 -9c-9 0 -19 7 -19 17c0 3 0 6 2 9z" fill="currentColor"/>
</g>
</a>
<a style="color:inherit;" xlink:href="textedit:///Users/montoyaedu/TheMessiah/TheMessiah.ly:48:16:24">
<g transform="translate(106.4672, 24.4182)">
<path transform="scale(0.0022, -0.0022)" d="M198 284c24 15 48 29 65 52c12 16 19 34 28 52c2 5 6 7 11 7c8 0 16 -6 16 -17v-217h79c12 0 18 -9 18 -18s-6 -18 -18 -18h-79c2 -51 33 -96 80 -96c10 0 15 -8 15 -15s-5 -14 -15 -14c-49 0 -96 14 -145 14s-97 -14 -146 -14c-10 0 -14 7 -14 14s4 15 14 15
c47 0 79 45 81 96h-152c-29 0 -38 17 -38 28c0 3 1 6 2 8c78 88 123 201 123 319c0 11 8 21 17 21c1 0 3 -1 4 -1c25 -7 50 -14 76 -14s52 7 77 14c2 1 4 1 6 1c10 0 17 -7 17 -14c0 -2 0 -5 -2 -7l-282 -319h152v96c0 10 1 21 10 27z" fill="currentColor"/>
</g>
</a>
<a style="color:inherit;" xlink:href="textedit:///Users/montoyaedu/TheMessiah/TheMessiah.ly:48:24:32">
<g transform="translate(106.4672, 23.0934)">
<path transform="scale(0.0022, -0.0022)" d="M155 471c-34 0 -70 -8 -70 -38c0 -19 31 -23 31 -42c0 -28 -23 -51 -51 -51s-51 23 -51 51c0 67 68 109 141 109c93 0 174 -31 174 -113c0 -41 -6 -77 -42 -94c-11 -5 -17 -16 -17 -27s6 -22 17 -27c40 -19 59 -53 59 -98c0 -94 -83 -141 -186 -141
c-82 0 -160 45 -160 119c0 32 26 58 58 58s58 -26 58 -58c0 -22 -36 -26 -36 -48c0 -33 42 -42 80 -42c46 0 56 58 56 112v38c0 40 -4 69 -43 69h-74c-12 0 -18 9 -18 18s6 18 18 18h74c40 0 43 31 43 73v30c0 50 -16 84 -61 84z" fill="currentColor"/>
</g>
</a>
<a style="color:inherit;" xlink:href="textedit:///Users/montoyaedu/TheMessiah/TheMessiah.ly:48:30:38">
<g transform="translate(107.2579, 21.7709)">
<path transform="scale(0.0022, -0.0022)" d="M190 464c-54 0 -61 -71 -61 -141v-73v-73c0 -70 7 -141 61 -141s62 71 62 141c0 26 -1 51 -1 73s1 47 1 73c0 70 -8 141 -62 141zM190 500c118 0 190 -122 190 -250s-72 -250 -190 -250s-190 122 -190 250s72 250 190 250z" fill="currentColor"/>
</g>
</a>
<g transform="translate(107.8891, 23.5322)">
<path transform="scale(0.0040, -0.0040)" d="M216 -312c0 -10 -8 -19 -18 -19s-19 9 -19 19v145l-83 -31v-158c0 -10 -9 -19 -19 -19s-18 9 -18 19v145l-32 -12c-2 -1 -5 -1 -7 -1c-11 0 -20 9 -20 20v60c0 8 5 16 13 19l46 16v160l-32 -11c-2 -1 -5 -1 -7 -1c-11 0 -20 9 -20 20v60c0 8 5 15 13 18l46 17v158
c0 10 8 19 18 19s19 -9 19 -19v-145l83 31v158c0 10 9 19 19 19s18 -9 18 -19v-145l32 12c2 1 5 1 7 1c11 0 20 -9 20 -20v-60c0 -8 -5 -16 -13 -19l-46 -16v-160l32 11c2 1 5 1 7 1c11 0 20 -9 20 -20v-60c0 -8 -5 -15 -13 -18l-46 -17v-158zM96 65v-160l83 30v160z" fill="currentColor"/>
</g>
<a style="color:inherit;" xlink:href="textedit:///Users/montoyaedu/TheMessiah/TheMessiah.ly:14:4:19">
<g transform="translate(23.6764, 29.0934)">
<path transform="scale(0.0022, -0.0022)" d="M190 464c-54 0 -61 -71 -61 -141v-73v-73c0 -70 7 -141 61 -141s62 71 62 141c0 26 -1 51 -1 73s1 47 1 73c0 70 -8 141 -62 141zM190 500c118 0 190 -122 190 -250s-72 -250 -190 -250s-190 122 -190 250s72 250 190 250z" fill="currentColor"/>
</g>
</a>
<g transform="translate(26.7842, 26.5322)">
<path transform="scale(0.0040, -0.0040)" d="M0 0c0 31 25 56 56 56s56 -25 56 -56s-25 -56 -56 -56s-56 25 -56 56z" fill="currentColor"/>
</g>
<a style="color:inherit;" xlink:href="textedit:///Users/montoyaedu/TheMessiah/TheMessiah.ly:14:8:23">
<g transform="translate(23.6764, 27.1013)">
<path transform="scale(0.0022, -0.0022)" d="M129 129h130c0 -52 32 -100 81 -100c10 0 14 -8 14 -15s-4 -14 -14 -14c-49 0 -97 14 -146 14s-96 -14 -145 -14c-10 0 -15 7 -15 14s5 15 15 15c49 0 80 48 80 100zM0 250l129 250c3 7 13 3 21 0c14 -6 28 -14 44 -14s31 8 45 14c2 1 2 1 4 1c8 0 16 -9 16 -21v-351
h-130v215c0 15 -11 23 -20 23c-5 0 -9 -2 -11 -7l-66 -127c-4 -7 -9 -9 -15 -9c-9 0 -19 7 -19 17c0 3 0 6 2 9z" fill="currentColor"/>
</g>
</a>
<g transform="translate(26.7842, 23.5322)">
<path transform="scale(0.0040, -0.0040)" d="M0 0c0 31 25 56 56 56s56 -25 56 -56s-25 -56 -56 -56s-56 25 -56 56z" fill="currentColor"/>
</g>
<a style="color:inherit;" xlink:href="textedit:///Users/montoyaedu/TheMessiah/TheMessiah.ly:14:13:28">
<g transform="translate(23.6764, 24.5934)">
<path transform="scale(0.0022, -0.0022)" d="M190 464c-54 0 -61 -71 -61 -141v-73v-73c0 -70 7 -141 61 -141s62 71 62 141c0 26 -1 51 -1 73s1 47 1 73c0 70 -8 141 -62 141zM190 500c118 0 190 -122 190 -250s-72 -250 -190 -250s-190 122 -190 250s72 250 190 250z" fill="currentColor"/>
</g>
</a>
<g transform="translate(26.7842, 21.5322)">
<path transform="scale(0.0040, -0.0040)" d="M0 0c0 31 25 56 56 56s56 -25 56 -56s-25 -56 -56 -56s-56 25 -56 56z" fill="currentColor"/>
</g>
<a style="color:inherit;" xlink:href="textedit:///Users/montoyaedu/TheMessiah/TheMessiah.ly:14:19:34">
<g transform="translate(23.6764, 22.0934)">
<path transform="scale(0.0022, -0.0022)" d="M190 464c-54 0 -61 -71 -61 -141v-73v-73c0 -70 7 -141 61 -141s62 71 62 141c0 26 -1 51 -1 73s1 47 1 73c0 70 -8 141 -62 141zM190 500c118 0 190 -122 190 -250s-72 -250 -190 -250s-190 122 -190 250s72 250 190 250z" fill="currentColor"/>
</g>
</a>
<a style="color:inherit;" xlink:href="textedit:///Users/montoyaedu/TheMessiah/TheMessiah.ly:20:19:27">
<g transform="translate(45.7028, 23.9322)">
<path transform="scale(0.0022, -0.0022)" d="M129 129h130c0 -52 32 -100 81 -100c10 0 14 -8 14 -15s-4 -14 -14 -14c-49 0 -97 14 -146 14s-96 -14 -145 -14c-10 0 -15 7 -15 14s5 15 15 15c49 0 80 48 80 100zM0 250l129 250c3 7 13 3 21 0c14 -6 28 -14 44 -14s31 8 45 14c2 1 2 1 4 1c8 0 16 -9 16 -21v-351
h-130v215c0 15 -11 23 -20 23c-5 0 -9 -2 -11 -7l-66 -127c-4 -7 -9 -9 -15 -9c-9 0 -19 7 -19 17c0 3 0 6 2 9z" fill="currentColor"/>
</g>
</a>
<a style="color:inherit;" xlink:href="textedit:///Users/montoyaedu/TheMessiah/TheMessiah.ly:20:14:22">
<g transform="translate(45.7028, 25.2547)">
<path transform="scale(0.0022, -0.0022)" d="M155 471c-34 0 -70 -8 -70 -38c0 -19 31 -23 31 -42c0 -28 -23 -51 -51 -51s-51 23 -51 51c0 67 68 109 141 109c93 0 174 -31 174 -113c0 -41 -6 -77 -42 -94c-11 -5 -17 -16 -17 -27s6 -22 17 -27c40 -19 59 -53 59 -98c0 -94 -83 -141 -186 -141
c-82 0 -160 45 -160 119c0 32 26 58 58 58s58 -26 58 -58c0 -22 -36 -26 -36 -48c0 -33 42 -42 80 -42c46 0 56 58 56 112v38c0 40 -4 69 -43 69h-74c-12 0 -18 9 -18 18s6 18 18 18h74c40 0 43 31 43 73v30c0 50 -16 84 -61 84z" fill="currentColor"/>
</g>
</a>
<a style="color:inherit;" xlink:href="textedit:///Users/montoyaedu/TheMessiah/TheMessiah.ly:15:6:14">
<g transform="translate(33.8681, 27.0322)">
<path transform="scale(0.0040, -0.0040)" d="M218 136c55 0 108 -28 108 -89c0 -71 -55 -121 -102 -149c-35 -21 -75 -34 -116 -34c-55 0 -108 28 -108 89c0 71 55 121 102 149c35 21 75 34 116 34z" fill="currentColor"/>
</g>
</a>
<a style="color:inherit;" xlink:href="textedit:///Users/montoyaedu/TheMessiah/TheMessiah.ly:15:10:18">
<g transform="translate(33.8681, 25.0322)">
<path transform="scale(0.0040, -0.0040)" d="M218 136c55 0 108 -28 108 -89c0 -71 -55 -121 -102 -149c-35 -21 -75 -34 -116 -34c-55 0 -108 28 -108 89c0 71 55 121 102 149c35 21 75 34 116 34z" fill="currentColor"/>
</g>
</a>
<a style="color:inherit;" xlink:href="textedit:///Users/montoyaedu/TheMessiah/TheMessiah.ly:15:15:23">
<g transform="translate(33.8681, 22.5322)">
<path transform="scale(0.0040, -0.0040)" d="M218 136c55 0 108 -28 108 -89c0 -71 -55 -121 -102 -149c-35 -21 -75 -34 -116 -34c-55 0 -108 28 -108 89c0 71 55 121 102 149c35 21 75 34 116 34z" fill="currentColor"/>
</g>
</a>
<g transform="translate(35.1073, 23.0322)">
<rect x="-0.0650" y="-3.7500" width="0.1300" height="7.5639" ry="0.0400" fill="currentColor"/>
</g>
<g transform="translate(35.1723, 19.3222)">
<path transform="scale(0.0040, -0.0040)" d="M0 0v-250h-16v250h16zM0 0c0 -197 207 -336 207 -533c0 -71 -15 -141 -41 -207c-5 -8 -13 -12 -20 -12c-13 0 -26 11 -23 27c26 61 42 126 42 192c0 103 -94 208 -165 283v250z" fill="currentColor"/>
</g>
<a style="color:inherit;" xlink:href="textedit:///Users/montoyaedu/TheMessiah/TheMessiah.ly:15:7:15">
<g transform="translate(32.5145, 27.5934)">
<path transform="scale(0.0022, -0.0022)" d="M190 464c-54 0 -61 -71 -61 -141v-73v-73c0 -70 7 -141 61 -141s62 71 62 141c0 26 -1 51 -1 73s1 47 1 73c0 70 -8 141 -62 141zM190 500c118 0 190 -122 190 -250s-72 -250 -190 -250s-190 122 -190 250s72 250 190 250z" fill="currentColor"/>
</g>
</a>
<a style="color:inherit;" xlink:href="textedit:///Users/montoyaedu/TheMessiah/TheMessiah.ly:15:12:20">
<g transform="translate(32.5145, 25.5934)">
<path transform="scale(0.0022, -0.0022)" d="M155 471c-34 0 -70 -8 -70 -38c0 -19 31 -23 31 -42c0 -28 -23 -51 -51 -51s-51 23 -51 51c0 67 68 109 141 109c93 0 174 -31 174 -113c0 -41 -6 -77 -42 -94c-11 -5 -17 -16 -17 -27s6 -22 17 -27c40 -19 59 -53 59 -98c0 -94 -83 -141 -186 -141
c-82 0 -160 45 -160 119c0 32 26 58 58 58s58 -26 58 -58c0 -22 -36 -26 -36 -48c0 -33 42 -42 80 -42c46 0 56 58 56 112v38c0 40 -4 69 -43 69h-74c-12 0 -18 9 -18 18s6 18 18 18h74c40 0 43 31 43 73v30c0 50 -16 84 -61 84z" fill="currentColor"/>
</g>
</a>
<a style="color:inherit;" xlink:href="textedit:///Users/montoyaedu/TheMessiah/TheMessiah.ly:15:18:26">
<g transform="translate(32.5145, 23.0934)">
<path transform="scale(0.0022, -0.0022)" d="M129 149h7c36 0 74 -13 111 -40c19 -14 40 -21 59 -21c22 0 40 10 46 31c2 7 7 11 13 11c7 0 15 -5 15 -14v-5c-19 -71 -84 -111 -146 -111c-38 0 -75 15 -101 47c-12 15 -28 22 -44 22c-29 0 -57 -21 -60 -56c-1 -9 -7 -13 -14 -13s-15 5 -15 14c0 173 233 163 233 341
c0 56 -14 116 -62 116c-33 0 -66 -15 -66 -44c0 -24 31 -37 31 -61c0 -34 -27 -61 -61 -61s-61 27 -61 61c0 78 74 134 157 134c98 0 191 -55 191 -145c0 -144 -135 -156 -233 -206z" fill="currentColor"/>
</g>
</a>
<a style="color:inherit;" xlink:href="textedit:///Users/montoyaedu/TheMessiah/TheMessiah.ly:14:3:18">
<g transform="translate(25.0300, 28.5322)">
<path transform="scale(0.0040, -0.0040)" d="M218 136c55 0 108 -28 108 -89c0 -71 -55 -121 -102 -149c-35 -21 -75 -34 -116 -34c-55 0 -108 28 -108 89c0 71 55 121 102 149c35 21 75 34 116 34z" fill="currentColor"/>
</g>
</a>
<a style="color:inherit;" xlink:href="textedit:///Users/montoyaedu/TheMessiah/TheMessiah.ly:16:6:14">
<g transform="translate(38.1500, 26.5322)">
<path transform="scale(0.0040, -0.0040)" d="M218 136c55 0 108 -28 108 -89c0 -71 -55 -121 -102 -149c-35 -21 -75 -34 -116 -34c-55 0 -108 28 -108 89c0 71 55 121 102 149c35 21 75 34 116 34z" fill="currentColor"/>
</g>
</a>
<a style="color:inherit;" xlink:href="textedit:///Users/montoyaedu/TheMessiah/TheMessiah.ly:16:10:18">
<g transform="translate(38.1500, 24.0322)">
<path transform="scale(0.0040, -0.0040)" d="M218 136c55 0 108 -28 108 -89c0 -71 -55 -121 -102 -149c-35 -21 -75 -34 -116 -34c-55 0 -108 28 -108 89c0 71 55 121 102 149c35 21 75 34 116 34z" fill="currentColor"/>
</g>
</a>
<a style="color:inherit;" xlink:href="textedit:///Users/montoyaedu/TheMessiah/TheMessiah.ly:16:15:23">
<g transform="translate(38.1500, 23.0322)">
<path transform="scale(0.0040, -0.0040)" d="M218 136c55 0 108 -28 108 -89c0 -71 -55 -121 -102 -149c-35 -21 -75 -34 -116 -34c-55 0 -108 28 -108 89c0 71 55 121 102 149c35 21 75 34 116 34z" fill="currentColor"/>
</g>
</a>
<g transform="translate(39.9042, 26.5322)">
<path transform="scale(0.0040, -0.0040)" d="M0 0c0 31 25 56 56 56s56 -25 56 -56s-25 -56 -56 -56s-56 25 -56 56z" fill="currentColor"/>
</g>
<g transform="translate(39.3892, 23.0322)">
<rect x="-0.0650" y="-3.3333" width="0.1300" height="6.6472" ry="0.0400" fill="currentColor"/>
</g>
<a style="color:inherit;" xlink:href="textedit:///Users/montoyaedu/TheMessiah/TheMessiah.ly:16:7:15">
<g transform="translate(36.7964, 27.1013)">
<path transform="scale(0.0022, -0.0022)" d="M129 129h130c0 -52 32 -100 81 -100c10 0 14 -8 14 -15s-4 -14 -14 -14c-49 0 -97 14 -146 14s-96 -14 -145 -14c-10 0 -15 7 -15 14s5 15 15 15c49 0 80 48 80 100zM0 250l129 250c3 7 13 3 21 0c14 -6 28 -14 44 -14s31 8 45 14c2 1 2 1 4 1c8 0 16 -9 16 -21v-351
h-130v215c0 15 -11 23 -20 23c-5 0 -9 -2 -11 -7l-66 -127c-4 -7 -9 -9 -15 -9c-9 0 -19 7 -19 17c0 3 0 6 2 9z" fill="currentColor"/>
</g>
</a>
<g transform="translate(39.9042, 23.5322)">
<path transform="scale(0.0040, -0.0040)" d="M0 0c0 31 25 56 56 56s56 -25 56 -56s-25 -56 -56 -56s-56 25 -56 56z" fill="currentColor"/>
</g>
<a style="color:inherit;" xlink:href="textedit:///Users/montoyaedu/TheMessiah/TheMessiah.ly:16:12:20">
<g transform="translate(36.7964, 24.7547)">
<path transform="scale(0.0022, -0.0022)" d="M190 464c-54 0 -61 -71 -61 -141v-73v-73c0 -70 7 -141 61 -141s62 71 62 141c0 26 -1 51 -1 73s1 47 1 73c0 70 -8 141 -62 141zM190 500c118 0 190 -122 190 -250s-72 -250 -190 -250s-190 122 -190 250s72 250 190 250z" fill="currentColor"/>
</g>
</a>
<g transform="translate(39.9042, 22.5322)">
<path transform="scale(0.0040, -0.0040)" d="M0 0c0 31 25 56 56 56s56 -25 56 -56s-25 -56 -56 -56s-56 25 -56 56z" fill="currentColor"/>
</g>
<a style="color:inherit;" xlink:href="textedit:///Users/montoyaedu/TheMessiah/TheMessiah.ly:16:17:25">
<g transform="translate(36.7964, 23.4322)">
<path transform="scale(0.0022, -0.0022)" d="M190 464c-54 0 -61 -71 -61 -141v-73v-73c0 -70 7 -141 61 -141s62 71 62 141c0 26 -1 51 -1 73s1 47 1 73c0 70 -8 141 -62 141zM190 500c118 0 190 -122 190 -250s-72 -250 -190 -250s-190 122 -190 250s72 250 190 250z" fill="currentColor"/>
</g>
</a>
<a style="color:inherit;" xlink:href="textedit:///Users/montoyaedu/TheMessiah/TheMessiah.ly:14:7:22">
<g transform="translate(25.0300, 26.5322)">
<path transform="scale(0.0040, -0.0040)" d="M218 136c55 0 108 -28 108 -89c0 -71 -55 -121 -102 -149c-35 -21 -75 -34 -116 -34c-55 0 -108 28 -108 89c0 71 55 121 102 149c35 21 75 34 116 34z" fill="currentColor"/>
</g>
</a>
<a style="color:inherit;" xlink:href="textedit:///Users/montoyaedu/TheMessiah/TheMessiah.ly:20:7:15">
<g transform="translate(45.7028, 27.1013)">
<path transform="scale(0.0022, -0.0022)" d="M129 129h130c0 -52 32 -100 81 -100c10 0 14 -8 14 -15s-4 -14 -14 -14c-49 0 -97 14 -146 14s-96 -14 -145 -14c-10 0 -15 7 -15 14s5 15 15 15c49 0 80 48 80 100zM0 250l129 250c3 7 13 3 21 0c14 -6 28 -14 44 -14s31 8 45 14c2 1 2 1 4 1c8 0 16 -9 16 -21v-351
h-130v215c0 15 -11 23 -20 23c-5 0 -9 -2 -11 -7l-66 -127c-4 -7 -9 -9 -15 -9c-9 0 -19 7 -19 17c0 3 0 6 2 9z" fill="currentColor"/>
</g>
</a>
<a style="color:inherit;" xlink:href="textedit:///Users/montoyaedu/TheMessiah/TheMessiah.ly:20:6:14">
<g transform="translate(46.9881, 26.5322)">
<path transform="scale(0.0040, -0.0040)" d="M218 136c55 0 108 -28 108 -89c0 -71 -55 -121 -102 -149c-35 -21 -75 -34 -116 -34c-55 0 -108 28 -108 89c0 71 55 121 102 149c35 21 75 34 116 34z" fill="currentColor"/>
</g>
</a>
<a style="color:inherit;" xlink:href="textedit:///Users/montoyaedu/TheMessiah/TheMessiah.ly:20:10:18">
<g transform="translate(46.9881, 24.5322)">
<path transform="scale(0.0040, -0.0040)" d="M218 136c55 0 108 -28 108 -89c0 -71 -55 -121 -102 -149c-35 -21 -75 -34 -116 -34c-55 0 -108 28 -108 89c0 71 55 121 102 149c35 21 75 34 116 34z" fill="currentColor"/>
</g>
</a>
<a style="color:inherit;" xlink:href="textedit:///Users/montoyaedu/TheMessiah/TheMessiah.ly:20:17:25">
<g transform="translate(46.9881, 23.5322)">
<path transform="scale(0.0040, -0.0040)" d="M218 136c55 0 108 -28 108 -89c0 -71 -55 -121 -102 -149c-35 -21 -75 -34 -116 -34c-55 0 -108 28 -108 89c0 71 55 121 102 149c35 21 75 34 116 34z" fill="currentColor"/>
</g>
</a>
<g transform="translate(48.2273, 23.0322)">
<rect x="-0.0650" y="-3.0000" width="0.1300" height="6.3139" ry="0.0400" fill="currentColor"/>
</g>
<g transform="translate(48.2923, 20.0722)">
<path transform="scale(0.0040, -0.0040)" d="M0 0v-250h-16v250h16zM0 0c0 -197 207 -336 207 -533c0 -71 -15 -141 -41 -207c-5 -8 -13 -12 -20 -12c-13 0 -26 11 -23 27c26 61 42 126 42 192c0 103 -94 208 -165 283v250z" fill="currentColor"/>
</g>
<g transform="translate(5.6906, 39.0601)">
<rect x="68.0684" y="-0.1000" width="1.8053" height="0.2000" ry="0.1000" fill="currentColor"/>
</g>
<g transform="translate(5.6906, 33.0601)">
<rect x="61.7312" y="-0.1000" width="1.9563" height="0.2000" ry="0.1000" fill="currentColor"/>
</g>
<g transform="translate(5.6906, 39.0601)">
<rect x="49.0859" y="-0.1000" width="1.9563" height="0.2000" ry="0.1000" fill="currentColor"/>
</g>
<g transform="translate(5.6906, 33.0601)">
<rect x="40.4073" y="-0.1000" width="1.9563" height="0.2000" ry="0.1000" fill="currentColor"/>
</g>
<g transform="translate(5.6906, 39.0601)">
<rect x="40.4073" y="-0.1000" width="1.9563" height="0.2000" ry="0.1000" fill="currentColor"/>
</g>
<g transform="translate(5.6906, 40.0601)">
<rect x="40.4073" y="-0.1000" width="1.9563" height="0.2000" ry="0.1000" fill="currentColor"/>
</g>
<g transform="translate(5.6906, 39.0601)">
<rect x="28.2354" y="-0.1000" width="1.9563" height="0.2000" ry="0.1000" fill="currentColor"/>
</g>
<g transform="translate(5.6906, 39.0601)">
<rect x="21.5177" y="-0.1000" width="1.9563" height="0.2000" ry="0.1000" fill="currentColor"/>
</g>
<g transform="translate(5.6906, 39.0601)">
<rect x="9.3458" y="-0.1000" width="1.9563" height="0.2000" ry="0.1000" fill="currentColor"/>
</g>
<g transform="translate(5.6906, 38.0601)">
<line stroke-linejoin="round" stroke-linecap="round" stroke-width="0.1000" stroke="currentColor" x1="0.0500" y1="0" x2="108.0705" y2="0"/>
</g>
<g transform="translate(5.6906, 37.0601)">
<line stroke-linejoin="round" stroke-linecap="round" stroke-width="0.1000" stroke="currentColor" x1="0.0500" y1="0" x2="108.0705" y2="0"/>
</g>
<g transform="translate(5.6906, 36.0601)">
<line stroke-linejoin="round" stroke-linecap="round" stroke-width="0.1000" stroke="currentColor" x1="0.0500" y1="0" x2="108.0705" y2="0"/>
</g>
<g transform="translate(5.6906, 35.0601)">
<line stroke-linejoin="round" stroke-linecap="round" stroke-width="0.1000" stroke="currentColor" x1="0.0500" y1="0" x2="108.0705" y2="0"/>
</g>
<g transform="translate(5.6906, 34.0601)">
<line stroke-linejoin="round" stroke-linecap="round" stroke-width="0.1000" stroke="currentColor" x1="0.0500" y1="0" x2="108.0705" y2="0"/>
</g>
<g transform="translate(92.0876, 36.0601)">
<rect x="0.0000" y="-2.0000" width="0.1900" height="4.0000" ry="0.0000" fill="currentColor"/>
</g>
<g transform="translate(51.9323, 36.0601)">
<rect x="0.0000" y="-2.0000" width="0.1900" height="4.0000" ry="0.0000" fill="currentColor"/>
</g>
<g transform="translate(113.6210, 36.0601)">
<rect x="0.0000" y="-2.0000" width="0.1900" height="4.0000" ry="0.0000" fill="currentColor"/>
</g>
<a style="color:inherit;" xlink:href="textedit:///Users/montoyaedu/TheMessiah/TheMessiah.ly:65:17:25">
<g transform="translate(45.0020, 36.4601)">
<path transform="scale(0.0022, -0.0022)" d="M190 464c-54 0 -61 -71 -61 -141v-73v-73c0 -70 7 -141 61 -141s62 71 62 141c0 26 -1 51 -1 73s1 47 1 73c0 70 -8 141 -62 141zM190 500c118 0 190 -122 190 -250s-72 -250 -190 -250s-190 122 -190 250s72 250 190 250z" fill="currentColor"/>
</g>
</a>
<g transform="translate(4.8028, 33.0101)">
<text font-family="serif" font-size="1.7461" text-anchor="start" fill="currentColor">
<tspan>4</tspan>
</text>
</g>
<g transform="translate(6.4906, 37.0601)">
<path transform="scale(0.0040, -0.0040)" d="M266 -635h-6c-108 0 -195 88 -195 197c0 58 53 103 112 103c54 0 95 -47 95 -103c0 -52 -43 -95 -95 -95c-11 0 -21 2 -31 6c26 -39 68 -65 117 -65h4zM461 -203c68 24 113 95 113 164c0 90 -66 179 -173 190c24 -116 46 -231 60 -354zM74 28c0 -135 129 -247 264 -247
c28 0 55 2 82 6c-14 127 -37 245 -63 364c-79 -8 -124 -61 -124 -119c0 -44 25 -91 81 -123c5 -5 7 -10 7 -15c0 -11 -10 -22 -22 -22c-3 0 -6 1 -9 2c-80 43 -117 115 -117 185c0 88 58 174 160 197c-14 58 -29 117 -46 175c-107 -121 -213 -243 -213 -403zM335 -262
c-188 0 -333 172 -333 374c0 177 131 306 248 441c-19 62 -37 125 -45 190c-6 52 -7 104 -7 156c0 115 55 224 149 292c6 5 14 5 20 0c71 -84 133 -245 133 -358c0 -143 -86 -255 -180 -364c21 -68 39 -138 56 -207c4 0 9 1 13 1c155 0 256 -128 256 -261
c0 -76 -33 -154 -107 -210c-22 -17 -47 -28 -73 -36c3 -35 5 -70 5 -105c0 -19 -1 -39 -2 -58c-7 -119 -88 -225 -202 -228l1 43c93 2 153 92 159 191c1 18 2 37 2 55c0 31 -1 61 -4 92c-29 -5 -58 -8 -89 -8zM428 916c0 55 -4 79 -20 129c-99 -48 -162 -149 -162 -259
c0 -74 18 -133 36 -194c80 97 146 198 146 324z" fill="currentColor"/>
</g>
<g transform="translate(9.9906, 34.0601)">
<path transform="scale(0.0040, -0.0040)" d="M216 -312c0 -10 -8 -19 -18 -19s-19 9 -19 19v145l-83 -31v-158c0 -10 -9 -19 -19 -19s-18 9 -18 19v145l-32 -12c-2 -1 -5 -1 -7 -1c-11 0 -20 9 -20 20v60c0 8 5 16 13 19l46 16v160l-32 -11c-2 -1 -5 -1 -7 -1c-11 0 -20 9 -20 20v60c0 8 5 15 13 18l46 17v158
c0 10 8 19 18 19s19 -9 19 -19v-145l83 31v158c0 10 9 19 19 19s18 -9 18 -19v-145l32 12c2 1 5 1 7 1c11 0 20 -9 20 -20v-60c0 -8 -5 -16 -13 -19l-46 -16v-160l32 11c2 1 5 1 7 1c11 0 20 -9 20 -20v-60c0 -8 -5 -15 -13 -18l-46 -17v-158zM96 65v-160l83 30v160z" fill="currentColor"/>
</g>
<a style="color:inherit;" xlink:href="textedit:///Users/montoyaedu/TheMessiah/TheMessiah.ly:59:6:14">
<g transform="translate(15.3624, 39.5601)">
<path transform="scale(0.0040, -0.0040)" d="M218 136c55 0 108 -28 108 -89c0 -71 -55 -121 -102 -149c-35 -21 -75 -34 -116 -34c-55 0 -108 28 -108 89c0 71 55 121 102 149c35 21 75 34 116 34z" fill="currentColor"/>
</g>
</a>
<a style="color:inherit;" xlink:href="textedit:///Users/montoyaedu/TheMessiah/TheMessiah.ly:59:10:18">
<g transform="translate(15.3624, 37.5601)">
<path transform="scale(0.0040, -0.0040)" d="M218 136c55 0 108 -28 108 -89c0 -71 -55 -121 -102 -149c-35 -21 -75 -34 -116 -34c-55 0 -108 28 -108 89c0 71 55 121 102 149c35 21 75 34 116 34z" fill="currentColor"/>
</g>
</a>
<a style="color:inherit;" xlink:href="textedit:///Users/montoyaedu/TheMessiah/TheMessiah.ly:59:17:25">
<g transform="translate(15.3624, 36.0601)">
<path transform="scale(0.0040, -0.0040)" d="M218 136c55 0 108 -28 108 -89c0 -71 -55 -121 -102 -149c-35 -21 -75 -34 -116 -34c-55 0 -108 28 -108 89c0 71 55 121 102 149c35 21 75 34 116 34z" fill="currentColor"/>
</g>
</a>
<a style="color:inherit;" xlink:href="textedit:///Users/montoyaedu/TheMessiah/TheMessiah.ly:59:22:30">
<g transform="translate(15.3624, 35.0601)">
<path transform="scale(0.0040, -0.0040)" d="M218 136c55 0 108 -28 108 -89c0 -71 -55 -121 -102 -149c-35 -21 -75 -34 -116 -34c-55 0 -108 28 -108 89c0 71 55 121 102 149c35 21 75 34 116 34z" fill="currentColor"/>
</g>
</a>
<g transform="translate(17.1166, 39.5601)">
<path transform="scale(0.0040, -0.0040)" d="M0 0c0 31 25 56 56 56s56 -25 56 -56s-25 -56 -56 -56s-56 25 -56 56z" fill="currentColor"/>
</g>
<g transform="translate(16.6016, 36.0601)">
<rect x="-0.0650" y="-4.0000" width="0.1300" height="7.3139" ry="0.0400" fill="currentColor"/>
</g>
<a style="color:inherit;" xlink:href="textedit:///Users/montoyaedu/TheMessiah/TheMessiah.ly:59:7:15">
<g transform="translate(14.0088, 40.1293)">
<path transform="scale(0.0022, -0.0022)" d="M129 129h130c0 -52 32 -100 81 -100c10 0 14 -8 14 -15s-4 -14 -14 -14c-49 0 -97 14 -146 14s-96 -14 -145 -14c-10 0 -15 7 -15 14s5 15 15 15c49 0 80 48 80 100zM0 250l129 250c3 7 13 3 21 0c14 -6 28 -14 44 -14s31 8 45 14c2 1 2 1 4 1c8 0 16 -9 16 -21v-351
h-130v215c0 15 -11 23 -20 23c-5 0 -9 -2 -11 -7l-66 -127c-4 -7 -9 -9 -15 -9c-9 0 -19 7 -19 17c0 3 0 6 2 9z" fill="currentColor"/>
</g>
</a>
<g transform="translate(17.1166, 37.5601)">
<path transform="scale(0.0040, -0.0040)" d="M0 0c0 31 25 56 56 56s56 -25 56 -56s-25 -56 -56 -56s-56 25 -56 56z" fill="currentColor"/>
</g>
<a style="color:inherit;" xlink:href="textedit:///Users/montoyaedu/TheMessiah/TheMessiah.ly:59:14:22">
<g transform="translate(14.0088, 38.1214)">
<path transform="scale(0.0022, -0.0022)" d="M129 149h7c36 0 74 -13 111 -40c19 -14 40 -21 59 -21c22 0 40 10 46 31c2 7 7 11 13 11c7 0 15 -5 15 -14v-5c-19 -71 -84 -111 -146 -111c-38 0 -75 15 -101 47c-12 15 -28 22 -44 22c-29 0 -57 -21 -60 -56c-1 -9 -7 -13 -14 -13s-15 5 -15 14c0 173 233 163 233 341
c0 56 -14 116 -62 116c-33 0 -66 -15 -66 -44c0 -24 31 -37 31 -61c0 -34 -27 -61 -61 -61s-61 27 -61 61c0 78 74 134 157 134c98 0 191 -55 191 -145c0 -144 -135 -156 -233 -206z" fill="currentColor"/>
</g>
</a>
<g transform="translate(17.1166, 35.5601)">
<path transform="scale(0.0040, -0.0040)" d="M0 0c0 31 25 56 56 56s56 -25 56 -56s-25 -56 -56 -56s-56 25 -56 56z" fill="currentColor"/>
</g>
<a style="color:inherit;" xlink:href="textedit:///Users/montoyaedu/TheMessiah/TheMessiah.ly:59:19:27">
<g transform="translate(12.4906, 36.7827)">
<path transform="scale(0.0022, -0.0022)" d="M155 471c-34 0 -70 -8 -70 -38c0 -19 31 -23 31 -42c0 -28 -23 -51 -51 -51s-51 23 -51 51c0 67 68 109 141 109c93 0 174 -31 174 -113c0 -41 -6 -77 -42 -94c-11 -5 -17 -16 -17 -27s6 -22 17 -27c40 -19 59 -53 59 -98c0 -94 -83 -141 -186 -141
c-82 0 -160 45 -160 119c0 32 26 58 58 58s58 -26 58 -58c0 -22 -36 -26 -36 -48c0 -33 42 -42 80 -42c46 0 56 58 56 112v38c0 40 -4 69 -43 69h-74c-12 0 -18 9 -18 18s6 18 18 18h74c40 0 43 31 43 73v30c0 50 -16 84 -61 84z" fill="currentColor"/>
</g>
</a>
<g transform="translate(17.1166, 34.5601)">
<path transform="scale(0.0040, -0.0040)" d="M0 0c0 31 25 56 56 56s56 -25 56 -56s-25 -56 -56 -56s-56 25 -56 56z" fill="currentColor"/>
</g>
<a style="color:inherit;" xlink:href="textedit:///Users/montoyaedu/TheMessiah/TheMessiah.ly:59:27:35">
<g transform="translate(12.4906, 35.4601)">
<path transform="scale(0.0022, -0.0022)" d="M198 284c24 15 48 29 65 52c12 16 19 34 28 52c2 5 6 7 11 7c8 0 16 -6 16 -17v-217h79c12 0 18 -9 18 -18s-6 -18 -18 -18h-79c2 -51 33 -96 80 -96c10 0 15 -8 15 -15s-5 -14 -15 -14c-49 0 -96 14 -145 14s-97 -14 -146 -14c-10 0 -14 7 -14 14s4 15 14 15
c47 0 79 45 81 96h-152c-29 0 -38 17 -38 28c0 3 1 6 2 8c78 88 123 201 123 319c0 11 8 21 17 21c1 0 3 -1 4 -1c25 -7 50 -14 76 -14s52 7 77 14c2 1 4 1 6 1c10 0 17 -7 17 -14c0 -2 0 -5 -2 -7l-282 -319h152v96c0 10 1 21 10 27z" fill="currentColor"/>
</g>
</a>
<g transform="translate(13.9124, 35.0601)">
<path transform="scale(0.0040, -0.0040)" d="M216 -312c0 -10 -8 -19 -18 -19s-19 9 -19 19v145l-83 -31v-158c0 -10 -9 -19 -19 -19s-18 9 -18 19v145l-32 -12c-2 -1 -5 -1 -7 -1c-11 0 -20 9 -20 20v60c0 8 5 16 13 19l46 16v160l-32 -11c-2 -1 -5 -1 -7 -1c-11 0 -20 9 -20 20v60c0 8 5 15 13 18l46 17v158
c0 10 8 19 18 19s19 -9 19 -19v-145l83 31v158c0 10 9 19 19 19s18 -9 18 -19v-145l32 12c2 1 5 1 7 1c11 0 20 -9 20 -20v-60c0 -8 -5 -16 -13 -19l-46 -16v-160l32 11c2 1 5 1 7 1c11 0 20 -9 20 -20v-60c0 -8 -5 -15 -13 -18l-46 -17v-158zM96 65v-160l83 30v160z" fill="currentColor"/>
</g>
<a style="color:inherit;" xlink:href="textedit:///Users/montoyaedu/TheMessiah/TheMessiah.ly:61:6:14">
<g transform="translate(27.5343, 39.5601)">
<path transform="scale(0.0040, -0.0040)" d="M218 136c55 0 108 -28 108 -89c0 -71 -55 -121 -102 -149c-35 -21 -75 -34 -116 -34c-55 0 -108 28 -108 89c0 71 55 121 102 149c35 21 75 34 116 34z" fill="currentColor"/>
</g>
</a>
<a style="color:inherit;" xlink:href="textedit:///Users/montoyaedu/TheMessiah/TheMessiah.ly:61:10:18">
<g transform="translate(27.5343, 36.0601)">
<path transform="scale(0.0040, -0.0040)" d="M218 136c55 0 108 -28 108 -89c0 -71 -55 -121 -102 -149c-35 -21 -75 -34 -116 -34c-55 0 -108 28 -108 89c0 71 55 121 102 149c35 21 75 34 116 34z" fill="currentColor"/>
</g>
</a>
<a style="color:inherit;" xlink:href="textedit:///Users/montoyaedu/TheMessiah/TheMessiah.ly:61:15:23">
<g transform="translate(27.5343, 35.0601)">
<path transform="scale(0.0040, -0.0040)" d="M218 136c55 0 108 -28 108 -89c0 -71 -55 -121 -102 -149c-35 -21 -75 -34 -116 -34c-55 0 -108 28 -108 89c0 71 55 121 102 149c35 21 75 34 116 34z" fill="currentColor"/>
</g>
</a>
<a style="color:inherit;" xlink:href="textedit:///Users/montoyaedu/TheMessiah/TheMessiah.ly:61:23:31">
<g transform="translate(27.5343, 34.0601)">
<path transform="scale(0.0040, -0.0040)" d="M218 136c55 0 108 -28 108 -89c0 -71 -55 -121 -102 -149c-35 -21 -75 -34 -116 -34c-55 0 -108 28 -108 89c0 71 55 121 102 149c35 21 75 34 116 34z" fill="currentColor"/>
</g>
</a>
<g transform="translate(28.7736, 36.0601)">
<rect x="-0.0650" y="-5.0000" width="0.1300" height="8.3139" ry="0.0400" fill="currentColor"/>
</g>
<g transform="translate(28.8386, 31.1001)">
<path transform="scale(0.0040, -0.0040)" d="M0 0v-250h-16v250h16zM0 0c0 -197 207 -336 207 -533c0 -71 -15 -141 -41 -207c-5 -8 -13 -12 -20 -12c-13 0 -26 11 -23 27c26 61 42 126 42 192c0 103 -94 208 -165 283v250z" fill="currentColor"/>
</g>
<a style="color:inherit;" xlink:href="textedit:///Users/montoyaedu/TheMessiah/TheMessiah.ly:61:7:15">
<g transform="translate(26.1808, 40.1293)">
<path transform="scale(0.0022, -0.0022)" d="M129 129h130c0 -52 32 -100 81 -100c10 0 14 -8 14 -15s-4 -14 -14 -14c-49 0 -97 14 -146 14s-96 -14 -145 -14c-10 0 -15 7 -15 14s5 15 15 15c49 0 80 48 80 100zM0 250l129 250c3 7 13 3 21 0c14 -6 28 -14 44 -14s31 8 45 14c2 1 2 1 4 1c8 0 16 -9 16 -21v-351
h-130v215c0 15 -11 23 -20 23c-5 0 -9 -2 -11 -7l-66 -127c-4 -7 -9 -9 -15 -9c-9 0 -19 7 -19 17c0 3 0 6 2 9z" fill="currentColor"/>
</g>
</a>
<a style="color:inherit;" xlink:href="textedit:///Users/montoyaedu/TheMessiah/TheMessiah.ly:61:12:20">
<g transform="translate(26.1808, 36.9440)">
<path transform="scale(0.0022, -0.0022)" d="M129 149h7c36 0 74 -13 111 -40c19 -14 40 -21 59 -21c22 0 40 10 46 31c2 7 7 11 13 11c7 0 15 -5 15 -14v-5c-19 -71 -84 -111 -146 -111c-38 0 -75 15 -101 47c-12 15 -28 22 -44 22c-29 0 -57 -21 -60 -56c-1 -9 -7 -13 -14 -13s-15 5 -15 14c0 173 233 163 233 341
c0 56 -14 116 -62 116c-33 0 -66 -15 -66 -44c0 -24 31 -37 31 -61c0 -34 -27 -61 -61 -61s-61 27 -61 61c0 78 74 134 157 134c98 0 191 -55 191 -145c0 -144 -135 -156 -233 -206z" fill="currentColor"/>
</g>
</a>
<a style="color:inherit;" xlink:href="textedit:///Users/montoyaedu/TheMessiah/TheMessiah.ly:61:20:28">
<g transform="translate(26.1808, 35.6214)">
<path transform="scale(0.0022, -0.0022)" d="M155 471c-34 0 -70 -8 -70 -38c0 -19 31 -23 31 -42c0 -28 -23 -51 -51 -51s-51 23 -51 51c0 67 68 109 141 109c93 0 174 -31 174 -113c0 -41 -6 -77 -42 -94c-11 -5 -17 -16 -17 -27s6 -22 17 -27c40 -19 59 -53 59 -98c0 -94 -83 -141 -186 -141
c-82 0 -160 45 -160 119c0 32 26 58 58 58s58 -26 58 -58c0 -22 -36 -26 -36 -48c0 -33 42 -42 80 -42c46 0 56 58 56 112v38c0 40 -4 69 -43 69h-74c-12 0 -18 9 -18 18s6 18 18 18h74c40 0 43 31 43 73v30c0 50 -16 84 -61 84z" fill="currentColor"/>
</g>
</a>
<a style="color:inherit;" xlink:href="textedit:///Users/montoyaedu/TheMessiah/TheMessiah.ly:61:28:36">
<g transform="translate(26.1808, 34.2989)">
<path transform="scale(0.0022, -0.0022)" d="M129 129h130c0 -52 32 -100 81 -100c10 0 14 -8 14 -15s-4 -14 -14 -14c-49 0 -97 14 -146 14s-96 -14 -145 -14c-10 0 -15 7 -15 14s5 15 15 15c49 0 80 48 80 100zM0 250l129 250c3 7 13 3 21 0c14 -6 28 -14 44 -14s31 8 45 14c2 1 2 1 4 1c8 0 16 -9 16 -21v-351
h-130v215c0 15 -11 23 -20 23c-5 0 -9 -2 -11 -7l-66 -127c-4 -7 -9 -9 -15 -9c-9 0 -19 7 -19 17c0 3 0 6 2 9z" fill="currentColor"/>
</g>
</a>
<a style="color:inherit;" xlink:href="textedit:///Users/montoyaedu/TheMessiah/TheMessiah.ly:64:6:14">
<g transform="translate(34.2520, 39.5601)">
<path transform="scale(0.0040, -0.0040)" d="M218 136c55 0 108 -28 108 -89c0 -71 -55 -121 -102 -149c-35 -21 -75 -34 -116 -34c-55 0 -108 28 -108 89c0 71 55 121 102 149c35 21 75 34 116 34z" fill="currentColor"/>
</g>
</a>
<a style="color:inherit;" xlink:href="textedit:///Users/montoyaedu/TheMessiah/TheMessiah.ly:64:10:18">
<g transform="translate(34.2520, 37.0601)">
<path transform="scale(0.0040, -0.0040)" d="M218 136c55 0 108 -28 108 -89c0 -71 -55 -121 -102 -149c-35 -21 -75 -34 -116 -34c-55 0 -108 28 -108 89c0 71 55 121 102 149c35 21 75 34 116 34z" fill="currentColor"/>
</g>
</a>
<a style="color:inherit;" xlink:href="textedit:///Users/montoyaedu/TheMessiah/TheMessiah.ly:64:15:23">
<g transform="translate(34.2520, 35.0601)">
<path transform="scale(0.0040, -0.0040)" d="M218 136c55 0 108 -28 108 -89c0 -71 -55 -121 -102 -149c-35 -21 -75 -34 -116 -34c-55 0 -108 28 -108 89c0 71 55 121 102 149c35 21 75 34 116 34z" fill="currentColor"/>
</g>
</a>
<a style="color:inherit;" xlink:href="textedit:///Users/montoyaedu/TheMessiah/TheMessiah.ly:64:21:29">
<g transform="translate(34.2520, 33.5601)">
<path transform="scale(0.0040, -0.0040)" d="M218 136c55 0 108 -28 108 -89c0 -71 -55 -121 -102 -149c-35 -21 -75 -34 -116 -34c-55 0 -108 28 -108 89c0 71 55 121 102 149c35 21 75 34 116 34z" fill="currentColor"/>
</g>
</a>
<g transform="translate(36.0062, 39.5601)">
<path transform="scale(0.0040, -0.0040)" d="M0 0c0 31 25 56 56 56s56 -25 56 -56s-25 -56 -56 -56s-56 25 -56 56z" fill="currentColor"/>
</g>
<g transform="translate(35.4912, 36.0601)">
<rect x="-0.0650" y="-5.0000" width="0.1300" height="8.3139" ry="0.0400" fill="currentColor"/>
</g>
<a style="color:inherit;" xlink:href="textedit:///Users/montoyaedu/TheMessiah/TheMessiah.ly:64:7:15">
<g transform="translate(32.9667, 40.1293)">
<path transform="scale(0.0022, -0.0022)" d="M129 129h130c0 -52 32 -100 81 -100c10 0 14 -8 14 -15s-4 -14 -14 -14c-49 0 -97 14 -146 14s-96 -14 -145 -14c-10 0 -15 7 -15 14s5 15 15 15c49 0 80 48 80 100zM0 250l129 250c3 7 13 3 21 0c14 -6 28 -14 44 -14s31 8 45 14c2 1 2 1 4 1c8 0 16 -9 16 -21v-351
h-130v215c0 15 -11 23 -20 23c-5 0 -9 -2 -11 -7l-66 -127c-4 -7 -9 -9 -15 -9c-9 0 -19 7 -19 17c0 3 0 6 2 9z" fill="currentColor"/>
</g>
</a>
<g transform="translate(36.0062, 36.5601)">
<path transform="scale(0.0040, -0.0040)" d="M0 0c0 31 25 56 56 56s56 -25 56 -56s-25 -56 -56 -56s-56 25 -56 56z" fill="currentColor"/>
</g>
<a style="color:inherit;" xlink:href="textedit:///Users/montoyaedu/TheMessiah/TheMessiah.ly:64:12:20">
<g transform="translate(32.3484, 37.6214)">
<path transform="scale(0.0022, -0.0022)" d="M190 464c-54 0 -61 -71 -61 -141v-73v-73c0 -70 7 -141 61 -141s62 71 62 141c0 26 -1 51 -1 73s1 47 1 73c0 70 -8 141 -62 141zM190 500c118 0 190 -122 190 -250s-72 -250 -190 -250s-190 122 -190 250s72 250 190 250z" fill="currentColor"/>
</g>
</a>
<g transform="translate(36.0062, 34.5601)">
<path transform="scale(0.0040, -0.0040)" d="M0 0c0 31 25 56 56 56s56 -25 56 -56s-25 -56 -56 -56s-56 25 -56 56z" fill="currentColor"/>
</g>
<a style="color:inherit;" xlink:href="textedit:///Users/montoyaedu/TheMessiah/TheMessiah.ly:64:18:26">
<g transform="translate(31.7521, 35.6214)">
<path transform="scale(0.0022, -0.0022)" d="M155 471c-34 0 -70 -8 -70 -38c0 -19 31 -23 31 -42c0 -28 -23 -51 -51 -51s-51 23 -51 51c0 67 68 109 141 109c93 0 174 -31 174 -113c0 -41 -6 -77 -42 -94c-11 -5 -17 -16 -17 -27s6 -22 17 -27c40 -19 59 -53 59 -98c0 -94 -83 -141 -186 -141
c-82 0 -160 45 -160 119c0 32 26 58 58 58s58 -26 58 -58c0 -22 -36 -26 -36 -48c0 -33 42 -42 80 -42c46 0 56 58 56 112v38c0 40 -4 69 -43 69h-74c-12 0 -18 9 -18 18s6 18 18 18h74c40 0 43 31 43 73v30c0 50 -16 84 -61 84z" fill="currentColor"/>
</g>
</a>
<g transform="translate(36.0062, 33.5601)">
<path transform="scale(0.0040, -0.0040)" d="M0 0c0 31 25 56 56 56s56 -25 56 -56s-25 -56 -56 -56s-56 25 -56 56z" fill="currentColor"/>
</g>
<a style="color:inherit;" xlink:href="textedit:///Users/montoyaedu/TheMessiah/TheMessiah.ly:64:24:32">
<g transform="translate(31.7521, 34.1225)">
<path transform="scale(0.0022, -0.0022)" d="M198 284c24 15 48 29 65 52c12 16 19 34 28 52c2 5 6 7 11 7c8 0 16 -6 16 -17v-217h79c12 0 18 -9 18 -18s-6 -18 -18 -18h-79c2 -51 33 -96 80 -96c10 0 15 -8 15 -15s-5 -14 -15 -14c-49 0 -96 14 -145 14s-97 -14 -146 -14c-10 0 -14 7 -14 14s4 15 14 15
c47 0 79 45 81 96h-152c-29 0 -38 17 -38 28c0 3 1 6 2 8c78 88 123 201 123 319c0 11 8 21 17 21c1 0 3 -1 4 -1c25 -7 50 -14 76 -14s52 7 77 14c2 1 4 1 6 1c10 0 17 -7 17 -14c0 -2 0 -5 -2 -7l-282 -319h152v96c0 10 1 21 10 27z" fill="currentColor"/>
</g>
</a>
<g transform="translate(33.2060, 35.0601)">
<path transform="scale(0.0040, -0.0040)" d="M-8 375c8 4 17 7 26 7s16 -3 24 -7l-2 -183l106 20h3c10 0 18 -7 18 -17l7 -570c-8 -4 -16 -7 -25 -7s-17 3 -25 7l3 183l-106 -20h-3c-10 0 -18 7 -18 17zM131 112l-92 -17l-3 -207l92 17z" fill="currentColor"/>
</g>
<a style="color:inherit;" xlink:href="textedit:///Users/montoyaedu/TheMessiah/TheMessiah.ly:65:6:14">
<g transform="translate(46.4239, 40.5601)">
<path transform="scale(0.0040, -0.0040)" d="M218 136c55 0 108 -28 108 -89c0 -71 -55 -121 -102 -149c-35 -21 -75 -34 -116 -34c-55 0 -108 28 -108 89c0 71 55 121 102 149c35 21 75 34 116 34z" fill="currentColor"/>
</g>
</a>
<a style="color:inherit;" xlink:href="textedit:///Users/montoyaedu/TheMessiah/TheMessiah.ly:65:10:18">
<g transform="translate(46.4239, 37.0601)">
<path transform="scale(0.0040, -0.0040)" d="M218 136c55 0 108 -28 108 -89c0 -71 -55 -121 -102 -149c-35 -21 -75 -34 -116 -34c-55 0 -108 28 -108 89c0 71 55 121 102 149c35 21 75 34 116 34z" fill="currentColor"/>
</g>
</a>
<a style="color:inherit;" xlink:href="textedit:///Users/montoyaedu/TheMessiah/TheMessiah.ly:65:15:23">
<g transform="translate(46.4239, 36.0601)">
<path transform="scale(0.0040, -0.0040)" d="M218 136c55 0 108 -28 108 -89c0 -71 -55 -121 -102 -149c-35 -21 -75 -34 -116 -34c-55 0 -108 28 -108 89c0 71 55 121 102 149c35 21 75 34 116 34z" fill="currentColor"/>
</g>
</a>
<a style="color:inherit;" xlink:href="textedit:///Users/montoyaedu/TheMessiah/TheMessiah.ly:65:20:28">
<g transform="translate(46.4239, 32.5601)">
<path transform="scale(0.0040, -0.0040)" d="M218 136c55 0 108 -28 108 -89c0 -71 -55 -121 -102 -149c-35 -21 -75 -34 -116 -34c-55 0 -108 28 -108 89c0 71 55 121 102 149c35 21 75 34 116 34z" fill="currentColor"/>
</g>
</a>
<g transform="translate(47.6631, 36.0601)">
<rect x="-0.0650" y="-6.5000" width="0.1300" height="10.8139" ry="0.0400" fill="currentColor"/>
</g>
<g transform="translate(47.7281, 29.6001)">
<path transform="scale(0.0040, -0.0040)" d="M0 0v-250h-16v250h16zM0 0c0 -197 207 -336 207 -533c0 -71 -15 -141 -41 -207c-5 -8 -13 -12 -20 -12c-13 0 -26 11 -23 27c26 61 42 126 42 192c0 103 -94 208 -165 283v250z" fill="currentColor"/>
</g>
<a style="color:inherit;" xlink:href="textedit:///Users/montoyaedu/TheMessiah/TheMessiah.ly:65:7:15">
<g transform="translate(45.0020, 41.1293)">
<path transform="scale(0.0022, -0.0022)" d="M129 129h130c0 -52 32 -100 81 -100c10 0 14 -8 14 -15s-4 -14 -14 -14c-49 0 -97 14 -146 14s-96 -14 -145 -14c-10 0 -15 7 -15 14s5 15 15 15c49 0 80 48 80 100zM0 250l129 250c3 7 13 3 21 0c14 -6 28 -14 44 -14s31 8 45 14c2 1 2 1 4 1c8 0 16 -9 16 -21v-351
h-130v215c0 15 -11 23 -20 23c-5 0 -9 -2 -11 -7l-66 -127c-4 -7 -9 -9 -15 -9c-9 0 -19 7 -19 17c0 3 0 6 2 9z" fill="currentColor"/>
</g>
</a>
<a style="color:inherit;" xlink:href="textedit:///Users/montoyaedu/TheMessiah/TheMessiah.ly:65:12:20">
<g transform="translate(45.0020, 37.7827)">
<path transform="scale(0.0022, -0.0022)" d="M190 464c-54 0 -61 -71 -61 -141v-73v-73c0 -70 7 -141 61 -141s62 71 62 141c0 26 -1 51 -1 73s1 47 1 73c0 70 -8 141 -62 141zM190 500c118 0 190 -122 190 -250s-72 -250 -190 -250s-190 122 -190 250s72 250 190 250z" fill="currentColor"/>
</g>
</a>
<a style="color:inherit;" xlink:href="textedit:///Users/montoyaedu/TheMessiah/TheMessiah.ly:60:2:17">
<g transform="translate(17.0464, 31.5501)">
<line stroke-linejoin="round" stroke-linecap="round" stroke-width="0.1000" stroke="currentColor" x1="0" y1="0" x2="11.2716" y2="-0.0000" stroke-dasharray="0.5367436448465271,2.1469745793861086"/>
</g>
<g transform="translate(15.6124, 31.5501)">
<text font-family="serif" font-style="italic" font-size="2.2001" text-anchor="start" fill="currentColor">
<tspan>II</tspan>
</text>
</g>
</a>
<a style="color:inherit;" xlink:href="textedit:///Users/montoyaedu/TheMessiah/TheMessiah.ly:65:23:31">
<g transform="translate(45.0020, 33.1225)">
<path transform="scale(0.0022, -0.0022)" d="M198 284c24 15 48 29 65 52c12 16 19 34 28 52c2 5 6 7 11 7c8 0 16 -6 16 -17v-217h79c12 0 18 -9 18 -18s-6 -18 -18 -18h-79c2 -51 33 -96 80 -96c10 0 15 -8 15 -15s-5 -14 -15 -14c-49 0 -96 14 -145 14s-97 -14 -146 -14c-10 0 -14 7 -14 14s4 15 14 15
c47 0 79 45 81 96h-152c-29 0 -38 17 -38 28c0 3 1 6 2 8c78 88 123 201 123 319c0 11 8 21 17 21c1 0 3 -1 4 -1c25 -7 50 -14 76 -14s52 7 77 14c2 1 4 1 6 1c10 0 17 -7 17 -14c0 -2 0 -5 -2 -7l-282 -319h152v96c0 10 1 21 10 27z" fill="currentColor"/>
</g>
</a>
<a style="color:inherit;" xlink:href="textedit:///Users/montoyaedu/TheMessiah/TheMessiah.ly:70:6:14">
<g transform="translate(55.1025, 39.0601)">
<path transform="scale(0.0040, -0.0040)" d="M218 136c55 0 108 -28 108 -89c0 -71 -55 -121 -102 -149c-35 -21 -75 -34 -116 -34c-55 0 -108 28 -108 89c0 71 55 121 102 149c35 21 75 34 116 34z" fill="currentColor"/>
</g>
</a>
<a style="color:inherit;" xlink:href="textedit:///Users/montoyaedu/TheMessiah/TheMessiah.ly:70:11:19">
<g transform="translate(55.1025, 37.0601)">
<path transform="scale(0.0040, -0.0040)" d="M218 136c55 0 108 -28 108 -89c0 -71 -55 -121 -102 -149c-35 -21 -75 -34 -116 -34c-55 0 -108 28 -108 89c0 71 55 121 102 149c35 21 75 34 116 34z" fill="currentColor"/>
</g>
</a>
<a style="color:inherit;" xlink:href="textedit:///Users/montoyaedu/TheMessiah/TheMessiah.ly:70:16:24">
<g transform="translate(55.1025, 35.5601)">
<path transform="scale(0.0040, -0.0040)" d="M218 136c55 0 108 -28 108 -89c0 -71 -55 -121 -102 -149c-35 -21 -75 -34 -116 -34c-55 0 -108 28 -108 89c0 71 55 121 102 149c35 21 75 34 116 34z" fill="currentColor"/>
</g>
</a>
<a style="color:inherit;" xlink:href="textedit:///Users/montoyaedu/TheMessiah/TheMessiah.ly:70:22:30">
<g transform="translate(55.1025, 34.5601)">
<path transform="scale(0.0040, -0.0040)" d="M218 136c55 0 108 -28 108 -89c0 -71 -55 -121 -102 -149c-35 -21 -75 -34 -116 -34c-55 0 -108 28 -108 89c0 71 55 121 102 149c35 21 75 34 116 34z" fill="currentColor"/>
</g>
</a>
<g transform="translate(56.8567, 38.5601)">
<path transform="scale(0.0040, -0.0040)" d="M0 0c0 31 25 56 56 56s56 -25 56 -56s-25 -56 -56 -56s-56 25 -56 56z" fill="currentColor"/>
</g>
<g transform="translate(56.3417, 36.0601)">
<rect x="-0.0650" y="-4.3333" width="0.1300" height="7.1472" ry="0.0400" fill="currentColor"/>
</g>
<a style="color:inherit;" xlink:href="textedit:///Users/montoyaedu/TheMessiah/TheMessiah.ly:70:8:16">
<g transform="translate(53.7489, 39.6214)">
<path transform="scale(0.0022, -0.0022)" d="M155 471c-34 0 -70 -8 -70 -38c0 -19 31 -23 31 -42c0 -28 -23 -51 -51 -51s-51 23 -51 51c0 67 68 109 141 109c93 0 174 -31 174 -113c0 -41 -6 -77 -42 -94c-11 -5 -17 -16 -17 -27s6 -22 17 -27c40 -19 59 -53 59 -98c0 -94 -83 -141 -186 -141
c-82 0 -160 45 -160 119c0 32 26 58 58 58s58 -26 58 -58c0 -22 -36 -26 -36 -48c0 -33 42 -42 80 -42c46 0 56 58 56 112v38c0 40 -4 69 -43 69h-74c-12 0 -18 9 -18 18s6 18 18 18h74c40 0 43 31 43 73v30c0 50 -16 84 -61 84z" fill="currentColor"/>
</g>
</a>
<g transform="translate(56.8567, 36.5601)">
<path transform="scale(0.0040, -0.0040)" d="M0 0c0 31 25 56 56 56s56 -25 56 -56s-25 -56 -56 -56s-56 25 -56 56z" fill="currentColor"/>
</g>
<a style="color:inherit;" xlink:href="textedit:///Users/montoyaedu/TheMessiah/TheMessiah.ly:70:13:21">
<g transform="translate(53.7489, 37.7018)">
<path transform="scale(0.0022, -0.0022)" d="M190 464c-54 0 -61 -71 -61 -141v-73v-73c0 -70 7 -141 61 -141s62 71 62 141c0 26 -1 51 -1 73s1 47 1 73c0 70 -8 141 -62 141zM190 500c118 0 190 -122 190 -250s-72 -250 -190 -250s-190 122 -190 250s72 250 190 250z" fill="currentColor"/>
</g>
</a>
<g transform="translate(56.8567, 35.5601)">
<path transform="scale(0.0040, -0.0040)" d="M0 0c0 31 25 56 56 56s56 -25 56 -56s-25 -56 -56 -56s-56 25 -56 56z" fill="currentColor"/>
</g>
<a style="color:inherit;" xlink:href="textedit:///Users/montoyaedu/TheMessiah/TheMessiah.ly:70:19:27">
<g transform="translate(53.7489, 36.2984)">
<path transform="scale(0.0022, -0.0022)" d="M129 129h130c0 -52 32 -100 81 -100c10 0 14 -8 14 -15s-4 -14 -14 -14c-49 0 -97 14 -146 14s-96 -14 -145 -14c-10 0 -15 7 -15 14s5 15 15 15c49 0 80 48 80 100zM0 250l129 250c3 7 13 3 21 0c14 -6 28 -14 44 -14s31 8 45 14c2 1 2 1 4 1c8 0 16 -9 16 -21v-351
h-130v215c0 15 -11 23 -20 23c-5 0 -9 -2 -11 -7l-66 -127c-4 -7 -9 -9 -15 -9c-9 0 -19 7 -19 17c0 3 0 6 2 9z" fill="currentColor"/>
</g>
</a>
<g transform="translate(56.8567, 34.5601)">
<path transform="scale(0.0040, -0.0040)" d="M0 0c0 31 25 56 56 56s56 -25 56 -56s-25 -56 -56 -56s-56 25 -56 56z" fill="currentColor"/>
</g>
<a style="color:inherit;" xlink:href="textedit:///Users/montoyaedu/TheMessiah/TheMessiah.ly:70:25:33">
<g transform="translate(53.7489, 34.9601)">
<path transform="scale(0.0022, -0.0022)" d="M190 464c-54 0 -61 -71 -61 -141v-73v-73c0 -70 7 -141 61 -141s62 71 62 141c0 26 -1 51 -1 73s1 47 1 73c0 70 -8 141 -62 141zM190 500c118 0 190 -122 190 -250s-72 -250 -190 -250s-190 122 -190 250s72 250 190 250z" fill="currentColor"/>
</g>
</a>
<a style="color:inherit;" xlink:href="textedit:///Users/montoyaedu/TheMessiah/TheMessiah.ly:71:6:14">
<g transform="translate(67.7478, 33.0601)">
<path transform="scale(0.0040, -0.0040)" d="M218 136c55 0 108 -28 108 -89c0 -71 -55 -121 -102 -149c-35 -21 -75 -34 -116 -34c-55 0 -108 28 -108 89c0 71 55 121 102 149c35 21 75 34 116 34z" fill="currentColor"/>
</g>
</a>
<g transform="translate(67.8128, 36.0601)">
<rect x="-0.0650" y="-2.8139" width="0.1300" height="3.3139" ry="0.0400" fill="currentColor"/>
</g>
<g transform="translate(67.8778, 36.5201)">
<path transform="scale(0.0040, -0.0040)" d="M0 0h-16v250h16v-250zM0 0v250c97 59 224 148 224 259c0 57 -15 112 -40 163c-3 16 10 27 23 27c7 0 15 -3 20 -11c25 -56 40 -117 40 -179c0 -203 -267 -306 -267 -509z" fill="currentColor"/>
</g>
<a style="color:inherit;" xlink:href="textedit:///Users/montoyaedu/TheMessiah/TheMessiah.ly:71:9:17">
<g transform="translate(66.3259, 33.6225)">
<path transform="scale(0.0022, -0.0022)" d="M198 284c24 15 48 29 65 52c12 16 19 34 28 52c2 5 6 7 11 7c8 0 16 -6 16 -17v-217h79c12 0 18 -9 18 -18s-6 -18 -18 -18h-79c2 -51 33 -96 80 -96c10 0 15 -8 15 -15s-5 -14 -15 -14c-49 0 -96 14 -145 14s-97 -14 -146 -14c-10 0 -14 7 -14 14s4 15 14 15
c47 0 79 45 81 96h-152c-29 0 -38 17 -38 28c0 3 1 6 2 8c78 88 123 201 123 319c0 11 8 21 17 21c1 0 3 -1 4 -1c25 -7 50 -14 76 -14s52 7 77 14c2 1 4 1 6 1c10 0 17 -7 17 -14c0 -2 0 -5 -2 -7l-282 -319h152v96c0 10 1 21 10 27z" fill="currentColor"/>
</g>
</a>
<a style="color:inherit;" xlink:href="textedit:///Users/montoyaedu/TheMessiah/TheMessiah.ly:72:6:14">
<g transform="translate(73.9339, 39.0601)">
<path transform="scale(0.0040, -0.0040)" d="M218 136c55 0 108 -28 108 -89c0 -71 -55 -121 -102 -149c-35 -21 -75 -34 -116 -34c-55 0 -108 28 -108 89c0 71 55 121 102 149c35 21 75 34 116 34z" fill="currentColor"/>
</g>
</a>
<a style="color:inherit;" xlink:href="textedit:///Users/montoyaedu/TheMessiah/TheMessiah.ly:72:13:21">
<g transform="translate(73.9339, 36.5601)">
<path transform="scale(0.0040, -0.0040)" d="M218 136c55 0 108 -28 108 -89c0 -71 -55 -121 -102 -149c-35 -21 -75 -34 -116 -34c-55 0 -108 28 -108 89c0 71 55 121 102 149c35 21 75 34 116 34z" fill="currentColor"/>
</g>
</a>
<a style="color:inherit;" xlink:href="textedit:///Users/montoyaedu/TheMessiah/TheMessiah.ly:72:18:26">
<g transform="translate(73.9339, 35.5601)">
<path transform="scale(0.0040, -0.0040)" d="M218 136c55 0 108 -28 108 -89c0 -71 -55 -121 -102 -149c-35 -21 -75 -34 -116 -34c-55 0 -108 28 -108 89c0 71 55 121 102 149c35 21 75 34 116 34z" fill="currentColor"/>
</g>
</a>
<a style="color:inherit;" xlink:href="textedit:///Users/montoyaedu/TheMessiah/TheMessiah.ly:72:26:34">
<g transform="translate(73.9339, 33.5601)">
<path transform="scale(0.0040, -0.0040)" d="M218 136c55 0 108 -28 108 -89c0 -71 -55 -121 -102 -149c-35 -21 -75 -34 -116 -34c-55 0 -108 28 -108 89c0 71 55 121 102 149c35 21 75 34 116 34z" fill="currentColor"/>
</g>
</a>
<g transform="translate(75.6881, 38.5601)">
<path transform="scale(0.0040, -0.0040)" d="M0 0c0 31 25 56 56 56s56 -25 56 -56s-25 -56 -56 -56s-56 25 -56 56z" fill="currentColor"/>
</g>
<g transform="translate(75.1731, 36.0601)">
<rect x="-0.0650" y="-5.0000" width="0.1300" height="7.8139" ry="0.0400" fill="currentColor"/>
</g>
<a style="color:inherit;" xlink:href="textedit:///Users/montoyaedu/TheMessiah/TheMessiah.ly:72:10:18">
<g transform="translate(71.1986, 39.6214)">
<path transform="scale(0.0022, -0.0022)" d="M155 471c-34 0 -70 -8 -70 -38c0 -19 31 -23 31 -42c0 -28 -23 -51 -51 -51s-51 23 -51 51c0 67 68 109 141 109c93 0 174 -31 174 -113c0 -41 -6 -77 -42 -94c-11 -5 -17 -16 -17 -27s6 -22 17 -27c40 -19 59 -53 59 -98c0 -94 -83 -141 -186 -141
c-82 0 -160 45 -160 119c0 32 26 58 58 58s58 -26 58 -58c0 -22 -36 -26 -36 -48c0 -33 42 -42 80 -42c46 0 56 58 56 112v38c0 40 -4 69 -43 69h-74c-12 0 -18 9 -18 18s6 18 18 18h74c40 0 43 31 43 73v30c0 50 -16 84 -61 84z" fill="currentColor"/>
</g>
</a>
<g transform="translate(75.6881, 36.5601)">
<path transform="scale(0.0040, -0.0040)" d="M0 0c0 31 25 56 56 56s56 -25 56 -56s-25 -56 -56 -56s-56 25 -56 56z" fill="currentColor"/>
</g>
<a style="color:inherit;" xlink:href="textedit:///Users/montoyaedu/TheMessiah/TheMessiah.ly:72:15:23">
<g transform="translate(71.1986, 37.2984)">
<path transform="scale(0.0022, -0.0022)" d="M129 129h130c0 -52 32 -100 81 -100c10 0 14 -8 14 -15s-4 -14 -14 -14c-49 0 -97 14 -146 14s-96 -14 -145 -14c-10 0 -15 7 -15 14s5 15 15 15c49 0 80 48 80 100zM0 250l129 250c3 7 13 3 21 0c14 -6 28 -14 44 -14s31 8 45 14c2 1 2 1 4 1c8 0 16 -9 16 -21v-351
h-130v215c0 15 -11 23 -20 23c-5 0 -9 -2 -11 -7l-66 -127c-4 -7 -9 -9 -15 -9c-9 0 -19 7 -19 17c0 3 0 6 2 9z" fill="currentColor"/>
</g>
</a>
<g transform="translate(75.6881, 35.5601)">
<path transform="scale(0.0040, -0.0040)" d="M0 0c0 31 25 56 56 56s56 -25 56 -56s-25 -56 -56 -56s-56 25 -56 56z" fill="currentColor"/>
</g>
<a style="color:inherit;" xlink:href="textedit:///Users/montoyaedu/TheMessiah/TheMessiah.ly:72:23:31">
<g transform="translate(71.1986, 35.9601)">
<path transform="scale(0.0022, -0.0022)" d="M129 129h130c0 -52 32 -100 81 -100c10 0 14 -8 14 -15s-4 -14 -14 -14c-49 0 -97 14 -146 14s-96 -14 -145 -14c-10 0 -15 7 -15 14s5 15 15 15c49 0 80 48 80 100zM0 250l129 250c3 7 13 3 21 0c14 -6 28 -14 44 -14s31 8 45 14c2 1 2 1 4 1c8 0 16 -9 16 -21v-351
h-130v215c0 15 -11 23 -20 23c-5 0 -9 -2 -11 -7l-66 -127c-4 -7 -9 -9 -15 -9c-9 0 -19 7 -19 17c0 3 0 6 2 9z" fill="currentColor"/>
</g>
</a>
<g transform="translate(75.6881, 33.5601)">
<path transform="scale(0.0040, -0.0040)" d="M0 0c0 31 25 56 56 56s56 -25 56 -56s-25 -56 -56 -56s-56 25 -56 56z" fill="currentColor"/>
</g>
<a style="color:inherit;" xlink:href="textedit:///Users/montoyaedu/TheMessiah/TheMessiah.ly:72:29:37">
<g transform="translate(71.8527, 34.1214)">
<path transform="scale(0.0022, -0.0022)" d="M129 149h7c36 0 74 -13 111 -40c19 -14 40 -21 59 -21c22 0 40 10 46 31c2 7 7 11 13 11c7 0 15 -5 15 -14v-5c-19 -71 -84 -111 -146 -111c-38 0 -75 15 -101 47c-12 15 -28 22 -44 22c-29 0 -57 -21 -60 -56c-1 -9 -7 -13 -14 -13s-15 5 -15 14c0 173 233 163 233 341
c0 56 -14 116 -62 116c-33 0 -66 -15 -66 -44c0 -24 31 -37 31 -61c0 -34 -27 -61 -61 -61s-61 27 -61 61c0 78 74 134 157 134c98 0 191 -55 191 -145c0 -144 -135 -156 -233 -206z" fill="currentColor"/>
</g>
</a>
<g transform="translate(72.4839, 39.0601)">
<path transform="scale(0.0040, -0.0040)" d="M216 -312c0 -10 -8 -19 -18 -19s-19 9 -19 19v145l-83 -31v-158c0 -10 -9 -19 -19 -19s-18 9 -18 19v145l-32 -12c-2 -1 -5 -1 -7 -1c-11 0 -20 9 -20 20v60c0 8 5 16 13 19l46 16v160l-32 -11c-2 -1 -5 -1 -7 -1c-11 0 -20 9 -20 20v60c0 8 5 15 13 18l46 17v158
c0 10 8 19 18 19s19 -9 19 -19v-145l83 31v158c0 10 9 19 19 19s18 -9 18 -19v-145l32 12c2 1 5 1 7 1c11 0 20 -9 20 -20v-60c0 -8 -5 -16 -13 -19l-46 -16v-160l32 11c2 1 5 1 7 1c11 0 20 -9 20 -20v-60c0 -8 -5 -15 -13 -18l-46 -17v-158zM96 65v-160l83 30v160z" fill="currentColor"/>
</g>
<g transform="translate(72.4839, 35.5601)">
<path transform="scale(0.0040, -0.0040)" d="M216 -312c0 -10 -8 -19 -18 -19s-19 9 -19 19v145l-83 -31v-158c0 -10 -9 -19 -19 -19s-18 9 -18 19v145l-32 -12c-2 -1 -5 -1 -7 -1c-11 0 -20 9 -20 20v60c0 8 5 16 13 19l46 16v160l-32 -11c-2 -1 -5 -1 -7 -1c-11 0 -20 9 -20 20v60c0 8 5 15 13 18l46 17v158
c0 10 8 19 18 19s19 -9 19 -19v-145l83 31v158c0 10 9 19 19 19s18 -9 18 -19v-145l32 12c2 1 5 1 7 1c11 0 20 -9 20 -20v-60c0 -8 -5 -16 -13 -19l-46 -16v-160l32 11c2 1 5 1 7 1c11 0 20 -9 20 -20v-60c0 -8 -5 -15 -13 -18l-46 -17v-158zM96 65v-160l83 30v160z" fill="currentColor"/>
</g>
<a style="color:inherit;" xlink:href="textedit:///Users/montoyaedu/TheMessiah/TheMessiah.ly:73:6:14">
<g transform="translate(86.5792, 34.0601)">
<path transform="scale(0.0040, -0.0040)" d="M218 136c55 0 108 -28 108 -89c0 -71 -55 -121 -102 -149c-35 -21 -75 -34 -116 -34c-55 0 -108 28 -108 89c0 71 55 121 102 149c35 21 75 34 116 34z" fill="currentColor"/>
</g>
</a>
<g transform="translate(86.6442, 36.0601)">
<rect x="-0.0650" y="-1.8139" width="0.1300" height="3.3139" ry="0.0400" fill="currentColor"/>
</g>
<g transform="translate(86.7092, 37.5201)">
<path transform="scale(0.0040, -0.0040)" d="M0 0h-16v250h16v-250zM0 0v250c97 59 224 148 224 259c0 57 -15 112 -40 163c-3 16 10 27 23 27c7 0 15 -3 20 -11c25 -56 40 -117 40 -179c0 -203 -267 -306 -267 -509z" fill="currentColor"/>
</g>
<a style="color:inherit;" xlink:href="textedit:///Users/montoyaedu/TheMessiah/TheMessiah.ly:73:11:19">
<g transform="translate(85.2939, 34.6293)">
<path transform="scale(0.0022, -0.0022)" d="M129 129h130c0 -52 32 -100 81 -100c10 0 14 -8 14 -15s-4 -14 -14 -14c-49 0 -97 14 -146 14s-96 -14 -145 -14c-10 0 -15 7 -15 14s5 15 15 15c49 0 80 48 80 100zM0 250l129 250c3 7 13 3 21 0c14 -6 28 -14 44 -14s31 8 45 14c2 1 2 1 4 1c8 0 16 -9 16 -21v-351
h-130v215c0 15 -11 23 -20 23c-5 0 -9 -2 -11 -7l-66 -127c-4 -7 -9 -9 -15 -9c-9 0 -19 7 -19 17c0 3 0 6 2 9z" fill="currentColor"/>
</g>
</a>
<a style="color:inherit;" xlink:href="textedit:///Users/montoyaedu/TheMessiah/TheMessiah.ly:78:5:13">
<g transform="translate(95.3042, 35.0601)">
<path transform="scale(0.0040, -0.0040)" d="M365 -156h-355c-6 0 -10 4 -10 10v136c0 6 4 10 10 10h355c6 0 10 -4 10 -10v-136c0 -6 -4 -10 -10 -10z" fill="currentColor"/>
</g>
</a>
<g transform="translate(46.8836, 165.3694)">
<text font-family="sans-serif" font-size="2.2001" text-anchor="start" fill="currentColor">
<tspan>©</tspan>
</text>
</g>
<g transform="translate(49.6687, 165.3694)">
<text font-family="sans-serif" font-size="2.2001" text-anchor="start" fill="currentColor">
<tspan>2017</tspan>
</text>
</g>
<g transform="translate(55.8682, 165.3694)">
<text font-family="sans-serif" font-size="2.2001" text-anchor="start" fill="currentColor">
<tspan>Martino</tspan>
</text>
</g>
<g transform="translate(64.7651, 165.3694)">
<text font-family="sans-serif" font-size="2.2001" text-anchor="start" fill="currentColor">
<tspan>Vercesi</tspan>
</text>
</g>
</svg>
